<svg xmlns="http://www.w3.org/2000/svg" xml:space="preserve" viewBox="0 0 350 77.7">
    <defs>
    <style>
      svg {
        fill: #9ca3af;
      }
      @media (prefers-color-scheme:dark) {
        svg {
          fill: #94a3b8;
        }
      }
    </style>
  </defs>
    <path d="M77 50.5c-1.2-2.3-3.6-3.9-6.3-3.9-3.9 0-7.1 3.2-7.1 7.1v2.7c0 3.9-3.1 7-7 7H21.2c-3.9 0-7-3.1-7-7V22.1c0-3.9 3.1-7 7-7h37.6c1 .2 1.7.5 2.3 1 .6.5 1 1.1 1.2 1.8.5 1.1.8 2.5.1 3.9h.1c-.3.6-.7 1.2-1.4 1.8L40.7 38.4l-6.1-7.9c-2.4-3.1-6.9-3.7-10-1.3-3.1 2.4-3.7 6.8-1.4 9.9l-.2-.3c.1.2.2.3.3.5 0 0 2.3 2.8 2.6 3.2l7.8 10.1c2.4 3.1 6.7 3.7 9.8 1.4L67 36.8c.2-.1 1.9-1.5 2.9-2.2.1-.1.2-.1.3-.2l.2-.2.1-.1.1-.1c.2-.2.4-.4.7-.6.7-.7 1.4-1.4 2-2.2.2-.2.4-.5.6-.7l.1-.1c.3-.4.6-.8.8-1.2l.1-.1c.1-.1.1-.2.2-.3.2-.4.5-.8.7-1.2.2-.4.4-.8.5-1.2 0 0 0-.1.1-.1.1-.2.1-.4.2-.6 0-.1 0-.1.1-.2.2-.7.5-1.3.6-2 .1-.4.2-.8.2-1.2.5-3.3.1-6.7-1.2-9.8C73.3 5.2 65.7.7 56.5.7H21.2C9.5.6 0 10.1 0 21.8V56.4c0 11.7 9.5 21.2 21.2 21.2h6.3c.8.1 1.7.2 2.6.2h26.5c11.8-.1 21.3-9.5 21.3-21.2v-2.7c0-1.2-.3-2.4-.9-3.4zM325.7 50.5c0 1.7 1.4 2.8 2.8 2.8 1.3 0 2.1-.6 3-1.7l6.4-8.3 6.5 8.5c.7 1 1.5 1.5 2.8 1.5 1.7 0 3-1.3 3-3 0-.9-.4-1.7-.9-2.3l-7.4-9.1 7-8.6c.6-.8.9-1.5.9-2.3 0-1.7-1.4-2.8-2.8-2.8-1.3 0-2.1.6-3 1.7l-6 7.9-6-8.1c-.7-1-1.5-1.5-2.8-1.5-1.7 0-3 1.3-3 3 0 .9.4 1.7.9 2.3l7 8.6-7.5 9.2c-.6.6-.9 1.3-.9 2.2m-19.4-11.7v-7.9h6c3 0 4.8 1.3 4.8 4v.1c0 2.3-1.7 3.9-4.7 3.9l-6.1-.1zm-6.1 11.4c0 1.7 1.3 3 3 3s3-1.3 3-3v-6h4.9l5.9 7.5c.7.9 1.6 1.6 3 1.6 1.5 0 2.9-1.1 2.9-2.8 0-.9-.4-1.6-1-2.3l-4.2-5.1c3.4-1.4 5.5-4.1 5.5-8.4v-.1c0-2.6-.8-4.8-2.4-6.3-1.8-1.8-4.5-2.8-8.1-2.8h-9.6c-1.7 0-3 1.3-3 3v21.7h.1zm-20.8-8.7 3.8-9.1 3.8 9.1h-7.6zm-9.8 8.9c0 1.6 1.2 2.8 2.8 2.8 1.3 0 2.3-.7 2.8-1.9l1.9-4.5h12.2l1.9 4.3c.6 1.3 1.5 2.1 2.9 2.1 1.6 0 2.9-1.3 2.9-2.9 0-.4-.1-.8-.3-1.2L287 27.4c-.7-1.5-1.9-2.4-3.5-2.4h-.4c-1.7 0-2.9.9-3.6 2.4l-9.6 21.8c-.1.4-.3.8-.3 1.2m-30.8-.1c0 1.7 1.3 3 3 3s3-1.3 3-3V36.6l5.3 8.1c.6.9 1.4 1.5 2.5 1.5s1.9-.6 2.5-1.5l5.3-8.2v13.8c0 1.7 1.3 3 3 3s3-1.3 3-3v-22c0-1.7-1.3-3-3-3h-.7c-1.2 0-2.1.5-2.7 1.5l-7.4 12-7.3-12c-.6-.9-1.5-1.6-2.8-1.6h-.7c-1.7 0-3 1.3-3 3v22.1zm-26.6-.1c0 1.7 1.3 3 3 3s3-1.3 3-3v-5.5l3.5-3.2 7.9 10.4c.7.9 1.4 1.5 2.6 1.5 1.8 0 3.1-1.3 3.1-3 0-.9-.4-1.5-.8-2.1L226 37.5l7.8-7.3c.7-.6 1.1-1.3 1.1-2.3 0-1.5-1.1-2.8-2.8-2.8-1.1 0-1.8.4-2.6 1.2l-11.2 11.1v-9.3c0-1.7-1.3-3-3-3s-3 1.3-3 3v22.1h-.1zm-14.6 3.3c4.4 0 7.3-1.3 9.8-3.5.6-.5 1-1.2 1-2.2 0-1.5-1.3-2.8-2.8-2.8-.7 0-1.3.3-1.8.7-1.7 1.4-3.4 2.2-6 2.2-4.7 0-8-4-8-8.7v-.1c0-4.7 3.4-8.6 8-8.6 2.2 0 4 .7 5.7 2 .4.3 1 .6 1.8.6 1.7 0 3-1.3 3-3 0-1.1-.6-1.9-1.2-2.4-2.3-1.7-5.1-2.8-9.2-2.8-8.5 0-14.4 6.4-14.4 14.3v.1c-.1 7.9 6 14.2 14.1 14.2m-73.8-3.3c0 1.7 1.3 3 3 3s3-1.3 3-3v-8.3H141v8.3c0 1.7 1.3 3 3 3s3-1.3 3-3v-22c0-1.7-1.3-3-3-3s-3 1.3-3 3v8.1h-11.2v-8.1c0-1.7-1.3-3-3-3s-3 1.3-3 3v22zm-14.6 3.3c4.4 0 7.3-1.3 9.8-3.5.6-.5 1-1.2 1-2.2 0-1.5-1.3-2.8-2.8-2.8-.7 0-1.3.3-1.8.7-1.7 1.4-3.4 2.2-6 2.2-4.7 0-8-4-8-8.7v-.1c0-4.7 3.4-8.6 8-8.6 2.2 0 4 .7 5.7 2 .4.3 1 .6 1.8.6 1.7 0 3-1.3 3-3 0-1.1-.6-1.9-1.2-2.4-2.3-1.7-5.1-2.8-9.2-2.8-8.5 0-14.4 6.4-14.4 14.3v.1c-.1 7.9 5.9 14.2 14.1 14.2M172.7 53.2h-12.9c-4.3 0-7.7-3.5-7.7-7.7V32.8c0-4.3 3.5-7.7 7.7-7.7h12.9c3.4 0 6.1 1.6 7.2 4.3 1.1 2.6.6 5.6-2 7.9-.1.1-1.2 1-1.3 1l-8.6 6.3c-1.1.8-2.7.6-3.6-.5l-3.8-4.9c-.9-1.1-.7-2.8.5-3.6 1.1-.9 2.8-.7 3.6.5l2.2 2.9 7.4-5.4c.9-.7.7-1.5.5-2.1-.3-.7-.9-1.1-2.1-1.1h-12.9c-1.4 0-2.6 1.1-2.6 2.6v12.6c0 1.4 1.1 2.6 2.6 2.6h12.9c1.4 0 2.6-1.1 2.6-2.6v-1c0-1.4 1.2-2.6 2.6-2.6s2.6 1.2 2.6 2.6v1c-.1 4.1-3.5 7.6-7.8 7.6"/>
</svg>