<svg xmlns="http://www.w3.org/2000/svg" xml:space="preserve" viewBox="0 0 360 80">
	    <defs>
        <style>
          svg {
            fill: #9ca3af;
          }
          @media (prefers-color-scheme:dark) {
            svg {
              fill: #94a3b8;
            }
          }
        </style>
    </defs>
  <path d="M79.2 51.6c-1.2-2.4-3.7-4-6.5-4-4 0-7.3 3.3-7.3 7.3v2.8c0 4-3.2 7.2-7.2 7.2H21.8c-4 0-7.2-3.2-7.2-7.2V22.4c0-4 3.2-7.2 7.2-7.2h38.7c1 .2 1.7.5 2.4 1 .6.5 1 1.1 1.2 1.9.5 1.1.8 2.6.1 4h.1c-.3.6-.7 1.2-1.4 1.9l-21 15.2-6.3-8.2c-2.5-3.2-7.1-3.8-10.3-1.3s-3.8 7-1.4 10.2l-.2-.3c.1.2.2.3.3.5 0 0 2.4 2.9 2.7 3.3l8 10.4c2.5 3.2 6.9 3.8 10.1 1.4L69 37.5c.2-.1 2-1.5 3-2.3.1-.1.2-.1.3-.2l.2-.2.1-.1.1-.1c.2-.2.4-.4.7-.6.7-.7 1.4-1.4 2.1-2.3.2-.2.4-.5.6-.7l.1-.1c.3-.4.6-.8.8-1.2l.1-.1c.1-.1.1-.2.2-.3.2-.4.5-.8.7-1.2.2-.4.4-.8.5-1.2 0 0 0-.1.1-.1.1-.2.1-.4.2-.6 0-.1 0-.1.1-.2.2-.7.5-1.3.6-2.1.1-.4.2-.8.2-1.2.5-3.4.1-6.9-1.2-10.1C75.4 5 67.5.4 58.1.4H21.8C9.8.3 0 10 0 22.1v35.6c0 12 9.8 21.8 21.8 21.8h6.5c.8.1 1.7.2 2.7.2h27.2c12.1-.1 21.9-9.8 21.9-21.8v-2.8c0-1.3-.3-2.5-.9-3.5zm255.6 0c0 1.7 1.4 2.9 2.9 2.9 1.3 0 2.2-.6 3.1-1.7l6.6-8.5 6.7 8.7c.7 1 1.5 1.5 2.9 1.5 1.7 0 3.1-1.3 3.1-3.1 0-.9-.4-1.7-.9-2.4l-7.6-9.4 7.2-8.8c.6-.8.9-1.5.9-2.4 0-1.7-1.4-2.9-2.9-2.9-1.3 0-2.2.6-3.1 1.7l-6.2 8.1-6.2-8.3c-.7-1-1.5-1.5-2.9-1.5-1.7 0-3.1 1.3-3.1 3.1 0 .9.4 1.7.9 2.4l7.2 8.8-7.7 9.5c-.6.6-.9 1.3-.9 2.3m-19.9-12.1v-8.1h6.2c3.1 0 4.9 1.3 4.9 4.1v.1c0 2.4-1.7 4-4.8 4l-6.3-.1zm-6.3 11.8c0 1.7 1.3 3.1 3.1 3.1s3.1-1.3 3.1-3.1v-6.2h5l6.1 7.7c.7.9 1.6 1.6 3.1 1.6s3-1.1 3-2.9c0-.9-.4-1.6-1-2.4l-4.3-5.2c3.5-1.4 5.7-4.2 5.7-8.6v-.1c0-2.7-.8-4.9-2.5-6.5-1.9-1.9-4.6-2.9-8.3-2.9h-9.9c-1.7 0-3.1 1.3-3.1 3.1v22.3zm-21.4-9 3.9-9.4 3.9 9.4h-7.8zm-10.1 9.2c0 1.6 1.2 2.9 2.9 2.9 1.3 0 2.4-.7 2.9-2l2-4.6h12.5l2 4.4c.6 1.3 1.5 2.2 3 2.2 1.6 0 3-1.3 3-3 0-.4-.1-.8-.3-1.2l-10-22.3c-.7-1.5-2-2.5-3.6-2.5h-.5c-1.7 0-3 .9-3.7 2.5l-9.9 22.4c0 .3-.3.8-.3 1.2m-31.6-.1c0 1.7 1.3 3.1 3.1 3.1 1.7 0 3.1-1.3 3.1-3.1V37.3l5.4 8.3c.6.9 1.4 1.5 2.6 1.5 1.1 0 2-.6 2.6-1.5l5.4-8.4v14.2c0 1.7 1.3 3.1 3.1 3.1s3.1-1.3 3.1-3.1V28.7c0-1.7-1.3-3.1-3.1-3.1h-.7c-1.2 0-2.2.5-2.8 1.5l-7.6 12.3-7.5-12.3c-.6-.9-1.5-1.6-2.9-1.6h-.7c-1.7 0-3.1 1.3-3.1 3.1v22.8zm-27.4-.1c0 1.7 1.3 3.1 3.1 3.1s3.1-1.3 3.1-3.1v-5.7l3.6-3.3L236 53c.7.9 1.4 1.5 2.7 1.5 1.9 0 3.2-1.3 3.2-3.1 0-.9-.4-1.5-.8-2.2l-8.7-11.1 8-7.5c.7-.6 1.1-1.3 1.1-2.4 0-1.5-1.1-2.9-2.9-2.9-1.1 0-1.9.4-2.7 1.2l-11.5 11.4v-9.6c0-1.7-1.3-3.1-3.1-3.1s-3.1 1.3-3.1 3.1V51c0 .3-.1.3-.1.3zm-15 3.3c4.5 0 7.5-1.3 10.1-3.6.6-.5 1-1.2 1-2.3 0-1.5-1.3-2.9-2.9-2.9-.7 0-1.3.3-1.9.7-1.7 1.4-3.5 2.3-6.2 2.3-4.8 0-8.2-4.1-8.2-8.9v-.1c0-4.8 3.5-8.8 8.2-8.8 2.3 0 4.1.7 5.9 2.1.4.3 1 .6 1.9.6 1.7 0 3.1-1.3 3.1-3.1 0-1.1-.6-2-1.2-2.5-2.4-1.7-5.2-2.9-9.5-2.9-8.7 0-14.8 6.6-14.8 14.7v.1c-.1 8.2 6.2 14.6 14.5 14.6m-75.8-3.3c0 1.7 1.3 3.1 3.1 3.1 1.7 0 3.1-1.3 3.1-3.1v-8.5H145v8.5c0 1.7 1.3 3.1 3.1 3.1 1.7 0 3.1-1.3 3.1-3.1V28.6c0-1.7-1.3-3.1-3.1-3.1-1.7 0-3.1 1.3-3.1 3.1V37h-11.5v-8.3c0-1.7-1.3-3.1-3.1-3.1-1.7 0-3.1 1.3-3.1 3.1v22.6zm-15 3.3c4.5 0 7.5-1.3 10.1-3.6.6-.5 1-1.2 1-2.3 0-1.5-1.3-2.9-2.9-2.9-.7 0-1.3.3-1.9.7-1.7 1.4-3.5 2.3-6.2 2.3-4.8 0-8.2-4.1-8.2-8.9v-.1c0-4.8 3.5-8.8 8.2-8.8 2.3 0 4.1.7 5.9 2.1.4.3 1 .6 1.9.6 1.7 0 3.1-1.3 3.1-3.1 0-1.1-.6-2-1.2-2.5-2.4-1.7-5.2-2.9-9.5-2.9-8.7 0-14.8 6.6-14.8 14.7v.1c-.1 8.2 6 14.6 14.5 14.6m65.2-.3h-13.3c-4.4 0-7.9-3.6-7.9-7.9v-13c0-4.4 3.6-7.9 7.9-7.9h13.3c3.5 0 6.3 1.6 7.4 4.4 1.1 2.7.6 5.8-2.1 8.1-.1.1-1.2 1-1.3 1l-8.8 6.5c-1.1.8-2.8.6-3.7-.5l-3.9-5c-.9-1.1-.7-2.9.5-3.7 1.1-.9 2.9-.7 3.7.5l2.3 3 7.6-5.6c.9-.7.7-1.5.5-2.2-.3-.7-.9-1.1-2.2-1.1h-13.3c-1.4 0-2.7 1.1-2.7 2.7v13c0 1.4 1.1 2.7 2.7 2.7h13.3c1.4 0 2.7-1.1 2.7-2.7v-1c0-1.4 1.2-2.7 2.7-2.7 1.4 0 2.7 1.2 2.7 2.7v1c-.2 4.1-3.6 7.7-8.1 7.7"/>
</svg>
