<svg xmlns="http://www.w3.org/2000/svg" xml:space="preserve" viewBox="0 0 360 80">
	<defs>
        <style>
          svg {
            fill: #9ca3af;
          }
          @media (prefers-color-scheme:dark) {
            svg {
              fill: #94a3b8;
            }
          }
        </style>
    </defs>
  <path d="M112.8 20.5h8.3v36.4h-8.3zM128.1 18.5h8.2v38.3h-8.2zM142.9 18.5h8.2v38.3h-8.2zM182.7 30.5h-8.3v15.7c0 .6-.1 1.3-.3 1.8-.5 1.3-1.8 2.9-4.1 2.9-2.9 0-4.1-2.3-4.1-6.2V30.5h-8.3V46c0 8.2 3.9 11.5 9.3 11.5 4.8 0 7.2-2.7 8.3-4.3h.2l.4 3.7h7.1c-.1-2.2-.2-5-.2-8.5V30.5zM200.5 40.7c-3.2-1.1-4.3-1.8-4.3-3 0-1.4 1.1-2.2 3.1-2.2 2.3 0 4.5.9 5.7 1.5l1.5-5.7c-1.6-.8-4.4-1.5-7.5-1.5-6.5 0-10.7 3.7-10.7 8.7-.1 3.1 2.1 6 7.5 7.9 3.1 1 3.9 1.7 3.9 3 0 1.4-1 2.2-3.5 2.2-2.4 0-5.6-1.1-7.1-2l-1.5 5.9c2 1.1 5.1 1.9 8.5 1.9 7.6 0 11.4-3.7 11.4-8.6.2-3.8-1.9-6.3-7-8.1zM221.9 23.3l-8 2.2v5h-3.5v6h3.5v10.8c0 3.7.8 6.3 2.3 7.8 1.3 1.4 3.5 2.3 6.2 2.3 2.3 0 4.3-.3 5.3-.8l-.1-6.2c-.8.2-1.3.2-2.4.2-2.5 0-3.2-1.5-3.2-4.6v-9.6h5.9v-6H222v-7.1zM239.8 35.3h-.2l-.3-4.9h-7.1c.1 2.3.2 4.8.2 8.7v17.7h8.2V43.5c0-.6.1-1.3.2-1.8.5-2.5 2.6-4.2 5.6-4.2.9 0 1.6.1 2.2.3V30c-.6-.1-1-.1-1.7-.1-2.5 0-5.7 1.6-7.1 5.4zM274.5 41.3c0-6.2-2.8-11.4-11.6-11.4-4.8 0-8.4 1.3-10.3 2.3l1.5 5.3c1.7-1.1 4.6-2 7.3-2 4.1 0 4.8 2 4.8 3.4v.4c-9.3-.1-15.5 3.2-15.5 10.1 0 4.2 3.2 8.1 8.5 8.1 3.1 0 5.8-1.1 7.6-3.2h.2l.5 2.6h7.4c-.3-1.5-.4-3.9-.4-6.4v-9.2zm-8 6c0 .5-.1 1-.2 1.4-.5 1.7-2.2 3-4.3 3-1.8 0-3.2-1-3.2-3.1 0-3.2 3.3-4.2 7.7-4.2v2.9zM289.7 23.3l-8 2.2v5h-3.5v6h3.5v10.8c0 3.7.8 6.3 2.3 7.8 1.3 1.4 3.5 2.3 6.2 2.3 2.3 0 4.3-.3 5.3-.8l-.1-6.2c-.8.2-1.3.2-2.4.2-2.5 0-3.2-1.5-3.2-4.6v-9.6h5.9v-6h-5.9v-7.1zM312.6 29.9c-8.5 0-14.1 5.5-14.1 14s5.9 13.6 13.7 13.6c7.1 0 13.9-4.4 13.9-14.1 0-8-5.4-13.5-13.5-13.5zm-.2 21.7c-3.5 0-5.4-3.4-5.4-7.9 0-3.9 1.5-7.9 5.4-7.9 3.7 0 5.2 4 5.2 7.9.1 4.7-2 7.9-5.2 7.9zM345.7 29.9c-2.5 0-5.8 1.6-7.1 5.5h-.2l-.3-4.9H331c.1 2.3.2 4.8.2 8.7v17.7h8.2V43.5c0-.6.1-1.3.2-1.8.5-2.5 2.6-4.2 5.6-4.2.9 0 1.6.1 2.2.3V30c-.6-.1-1-.1-1.7-.1zM48.5 35.5c-.3-1.1-.6-2.1-1-3.1-.3-1.1-.6-2.1-.9-3-.3-1-.5-1.8-.8-2.7h-.1c-.3 1.5-.7 2.9-1.2 4.4-.5 1.6-1 3.4-1.6 5.1-.5 1.7-1 3.4-1.5 4.8h8.7c-.2-.7-.5-1.6-.8-2.5-.2-1-.5-2-.8-3z"/>
	<path d="M80.1 0h-53c-8 0-14.5 6.5-14.5 14.5v50.9c0 8 6.5 14.5 14.5 14.5h53c8 0 14.5-6.5 14.5-14.5V14.5c0-8-6.5-14.5-14.5-14.5zM62.7 56.4h-7.1c-.2 0-.5-.1-.5-.4l-2.8-8.1H39.5l-2.6 8c-.1.3-.3.5-.6.5h-6.4c-.4 0-.5-.2-.4-.6l11-31.7c.1-.3.2-.7.3-1.1.1-.7.2-1.5.2-2.2 0-.2.1-.3.3-.4h8.9c.3 0 .4.1.4.3l12.5 35.2c.1.3 0 .5-.4.5zm11.8-.4c0 .4-.1.5-.4.5h-6.7c-.3 0-.5-.2-.5-.5V29.7c0-.3.1-.5.4-.5h6.8c.3 0 .4.2.4.5V56zm-.7-30.9c-.8.8-1.9 1.3-3.1 1.2-1.1 0-2.2-.4-3-1.2-.8-.9-1.2-2-1.2-3.1 0-1.2.4-2.3 1.2-3 .8-.8 1.9-1.2 3-1.2 1.3 0 2.4.4 3.1 1.2.8.8 1.2 1.9 1.1 3 .1 1.1-.3 2.3-1.1 3.1z"/>
</svg>
