<svg xmlns="http://www.w3.org/2000/svg" xml:space="preserve" viewBox="0 0 360 80">
  <defs>
        <style>
          svg {
            fill: #9ca3af;
          }
          @media (prefers-color-scheme:dark) {
            svg {
              fill: #94a3b8;
            }
          }
        </style>
    </defs>
  <path d="M7.4 80h80V0h-80v80zm60.8-21.6-1.9-.8c-5.4-2.3-9-5.2-9-11.3 0-5.6 4.3-9.9 11-9.9 4.8 0 8.2 1.7 10.7 6l-5.9 3.8c-1.3-2.3-2.7-3.2-4.8-3.2-2.2 0-3.6 1.4-3.6 3.2 0 2.3 1.4 3.2 4.6 4.6l1.9.8c6.4 2.7 10 5.5 10 11.8 0 6.8-5.3 10.5-12.5 10.5-7 0-11.5-3.3-13.7-7.7l6.1-3.5c1.6 2.6 3.7 4.6 7.4 4.6 3.1 0 5.1-1.6 5.1-3.7 0-2.8-2-3.7-5.4-5.2zm-33.6 4.8c1.2 2.1 2.3 3.9 4.8 3.9s4-1 4-4.7V36.7H51v25.7c0 7.8-4.6 11.3-11.2 11.3-6 0-9.5-3.1-11.3-6.9l6.1-3.6zM127.8 45.8c0 3.8-1.6 4.8-4 4.8-2.6 0-3.7-1.8-4.9-3.9l-6.2 3.7c1.8 3.8 5.3 6.9 11.3 6.9 6.7 0 11.3-3.6 11.3-11.4V20.1h-7.6v25.7zM151.3 33.4c-5.4 0-7.8 1.7-10 3.8l4.1 4.3c1-.9 2.5-2.1 5.2-2.1 2.4 0 3.7 1.2 3.8 3.8H149c-5.7 0-9.4 2-9.4 6.9 0 5.3 3.9 7.2 8.1 7.2 3.1 0 5.1-1 6.8-3.7l-.2 3.2h7.2v-13c.1-7.3-4.4-10.4-10.2-10.4zm3.1 15c0 1.9-1.5 3.2-4.5 3.2-2.1 0-3.1-.8-3.1-2.1s.8-2.1 2.6-2.1h5v1zM178.7 40.7c-1 2.3-1.8 6.1-1.8 6.1s-.8-3.8-1.9-6.1l-3.2-6.9h-8l12.5 23.5h.7l12.3-23.5h-7.4l-3.2 6.9zM201.6 33.4c-5.4 0-7.8 1.7-10 3.8l4 4.3c1-.9 2.5-2.1 5.2-2.1 2.4 0 3.7 1.2 3.8 3.8h-5.3c-5.7 0-9.4 2-9.4 6.9 0 5.3 3.9 7.2 8.1 7.2 3.1 0 5.1-1 6.8-3.7l-.2 3.2h7.2v-13c.2-7.3-4.3-10.4-10.2-10.4zm3.2 15c0 1.9-1.5 3.2-4.5 3.2-2.1 0-3.1-.8-3.1-2.1s.8-2.1 2.6-2.1h5v1zM231.6 34.9l-1.9-.8c-3.2-1.4-4.6-2.3-4.6-4.6 0-1.8 1.4-3.2 3.6-3.2s3.6.9 4.9 3.2l5.9-3.8c-2.5-4.4-5.9-6-10.7-6-6.8 0-11.1 4.3-11.1 10 0 6.2 3.6 9.1 9.1 11.4l1.9.8c3.5 1.5 5.5 2.4 5.5 5 0 2.2-2 3.7-5.1 3.7-3.7 0-5.8-1.9-7.5-4.6l-6.2 3.6c2.2 4.4 6.8 7.7 13.8 7.7 7.2 0 12.5-3.7 12.5-10.5-.1-6.3-3.7-9.1-10.1-11.9zM258.3 39.7c1.8 0 3.6 1 4.5 2.4L268 38c-2.3-2.9-5.1-4.6-9.7-4.6-7.2 0-12.6 5-12.6 11.9 0 7.1 5.4 12 12.6 12 4.6 0 7.3-1.6 9.6-4.2l-4.9-4.3c-1.1 1.1-2.3 2.2-4.6 2.2-3.3 0-5.1-2.4-5.1-5.7-.1-3.2 1.7-5.6 5-5.6zM279.5 38l.1-4.2h-7.3v23h7.3V46.6c0-4.9 1.8-6.4 5.1-6.4 1 0 1.9.3 2.8.7l2.3-6.6c-.9-.5-2.1-.9-3.6-.9-2.3 0-5 .8-6.7 4.6zM297.4 20.9c-2.5 0-4.6 1.9-4.6 4.5 0 2.7 2.2 4.6 4.6 4.6 2.5 0 4.6-1.9 4.6-4.6 0-2.6-2.1-4.5-4.6-4.5zM293.8 33.8h7.3v23h-7.3zM321.6 33.4c-3.6 0-6 1.6-7.4 4l.2-3.6H307v34.5h7.3V53.8c1.2 2.1 3.6 3.6 7.1 3.6 5.6 0 10.4-5 10.4-12s-4.7-12-10.2-12zM319.3 51c-3.1 0-5.2-2.1-5.2-5.7 0-3.4 2.1-5.5 5.2-5.5s5 2.1 5 5.5c0 3.6-1.9 5.7-5 5.7zM349.9 50.3c-.5.3-1.3 1-2.5 1-1.1 0-1.9-.5-1.9-2.8V40h5.9v-6h-5.9V22h-7.2v12h-3.4v6h3.4v8.3c0 6.9 3.3 9.2 8 9.2 3.3 0 5.3-1.2 6.4-2.1l-2.8-5.1z"/>
</svg>
