<svg xmlns="http://www.w3.org/2000/svg" xml:space="preserve" viewBox="0 0 360 80">
	<defs>
        <style>
          svg {
            fill: #9ca3af;
          }
          @media (prefers-color-scheme:dark) {
            svg {
              fill: #94a3b8;
            }
          }
        </style>
    </defs>
  <path d="M33.9 27.8c-1.3-.5-2.6-.7-4-.7H26.2v11.5c.5 0 .9.1 1.3.1h1.8c1.3 0 2.7-.2 3.9-.6 1.1-.3 2.1-1 2.8-1.8.7-.9 1.1-2 1.1-3.5 0-1.1-.2-2.1-.8-3-.5-1-1.4-1.7-2.4-2z"/>
	<path d="M67.8 0h-53C6.8 0 .3 6.5.3 14.5v50.9c0 8 6.5 14.5 14.5 14.5h53c8 0 14.5-6.5 14.5-14.5V14.5c0-8-6.5-14.5-14.5-14.5zM42.5 39.8c-1.4 1.9-3.3 3.4-5.5 4.2-2.3.9-4.9 1.2-7.7 1.2h-3.2v11c0 .2-.1.4-.4.5h-6.6c-.3 0-.4-.1-.4-.4V20.9c0-.2.1-.4.3-.4h1.9c.8 0 1.7 0 2.6-.1.9 0 1.9 0 3-.1h3.1c2.8 0 5.1.3 7 1.1 1.7.6 3.3 1.5 4.6 2.8 1.1 1.1 1.9 2.4 2.5 3.9.5 1.4.8 2.9.8 4.4.1 3-.6 5.4-2 7.3zm24.3 13.3c-1 1.4-2.3 2.4-3.8 3-1.7.7-3.7 1.1-6.2 1.1-1.6 0-3.1-.1-4.6-.4-1.2-.2-2.4-.6-3.5-1.1-.2-.1-.4-.4-.4-.6v-5.9c0-.1 0-.2.1-.3.1-.1.2 0 .3 0 1.3.8 2.7 1.3 4.2 1.7 1.3.3 2.7.5 4 .5 1.3 0 2.2-.2 2.8-.5.5-.2.9-.8.9-1.4 0-.5-.3-.9-.8-1.4s-1.7-1-3.4-1.6c-1.7-.6-3.4-1.4-4.9-2.5-1.1-.8-1.9-1.7-2.6-2.9-.5-1.1-.8-2.3-.8-3.5 0-1.5.4-2.9 1.2-4.1.9-1.4 2.1-2.5 3.6-3.1 1.6-.8 3.6-1.2 6.1-1.2 1.4 0 2.8.1 4.2.3 1 .1 2 .4 2.9.8.1 0 .3.2.3.3 0 .1.1.3.1.4v5.6c0 .1-.1.3-.2.3-.3.1-.5.1-.6 0-1-.5-2.1-.9-3.3-1.2-1.3-.3-2.5-.4-3.8-.4-.7 0-1.4.1-2.1.2-.4.1-.8.3-1.1.7-.2.3-.3.6-.3.9s.1.6.3.9c.3.4.7.7 1.2.9.8.4 1.6.8 2.4 1.1 1.8.6 3.6 1.5 5.3 2.5 1.1.7 2.1 1.7 2.7 2.8.5 1.1.8 2.3.8 3.5.3 1.7-.2 3.3-1 4.6zM124 23.1c-2.4-1.9-6-2.9-11.1-2.9-5 0-8.6.3-11.1.8v35.9h8.2v-13c.8.1 1.7.2 2.8.2 4.9 0 9-1.2 11.8-3.8 2.2-2.1 3.3-5.1 3.3-8.6 0-3.7-1.6-6.7-3.9-8.6zm-11.4 14.6c-1.2 0-2.1-.1-2.8-.2V26.7c.6-.2 1.7-.3 3.4-.3 4.1 0 6.4 2 6.4 5.3.1 3.8-2.6 6-7 6zM148.7 29.9c-1.5 0-3 .4-4.3 1-1.3.6-2.4 1.6-3.2 2.7h-.2V18.5h-8.2v38.3h8.2V41.2c0-.6.1-1.3.3-1.8.6-1.5 1.9-2.9 4.1-2.9 3.1 0 4.3 2.4 4.3 5.8v14.5h8.2V41.4c0-7.9-4-11.5-9.2-11.5zM177.1 29.9c-8.5 0-14.1 5.5-14.1 14s5.9 13.6 13.7 13.6c7.1 0 13.9-4.4 13.9-14.1 0-8-5.4-13.5-13.5-13.5zm-.3 21.7c-3.5 0-5.4-3.4-5.4-7.9 0-3.9 1.5-7.9 5.4-7.9 3.7 0 5.2 4 5.2 7.9.1 4.7-2 7.9-5.2 7.9zM204.8 23.3l-8 2.2v5h-3.5v6h3.5v10.8c0 3.7.8 6.3 2.3 7.8 1.3 1.4 3.5 2.3 6.2 2.3 2.3 0 4.3-.3 5.3-.8l-.1-6.2c-.8.2-1.3.2-2.4.2-2.5 0-3.2-1.5-3.2-4.6v-9.6h5.9v-6h-5.9v-7.1zM227.8 29.9c-8.5 0-14.1 5.5-14.1 14s5.9 13.6 13.7 13.6c7.1 0 13.9-4.4 13.9-14.1 0-8-5.4-13.5-13.5-13.5zm-.3 21.7c-3.5 0-5.4-3.4-5.4-7.9 0-3.9 1.5-7.9 5.4-7.9 3.7 0 5.2 4 5.2 7.9.1 4.7-2 7.9-5.2 7.9zM257.6 40.7c-3.2-1.1-4.3-1.8-4.3-3 0-1.4 1.1-2.2 3.1-2.2 2.3 0 4.5.9 5.7 1.5l1.5-5.7c-1.6-.8-4.4-1.5-7.5-1.5-6.5 0-10.7 3.7-10.7 8.7-.1 3.1 2.1 6 7.5 7.9 3.1 1 3.9 1.7 3.9 3 0 1.4-1 2.2-3.5 2.2-2.4 0-5.6-1.1-7.1-2l-1.5 5.9c2 1.1 5.1 1.9 8.5 1.9 7.6 0 11.4-3.7 11.4-8.6.2-3.8-2-6.4-7-8.1zM285.6 29.9c-1.5 0-3 .4-4.3 1-1.3.6-2.4 1.6-3.2 2.7h-.1V18.5h-8.2v38.3h8.2V41.2c0-.6.1-1.3.3-1.8.6-1.5 1.9-2.9 4.1-2.9 3.1 0 4.3 2.4 4.3 5.8v14.5h8.2V41.4c-.1-7.9-4.1-11.5-9.3-11.5zM314 29.9c-8.5 0-14.1 5.5-14.1 14s5.9 13.6 13.7 13.6c7.1 0 13.9-4.4 13.9-14.1 0-8-5.4-13.5-13.5-13.5zm-.2 21.7c-3.5 0-5.4-3.4-5.4-7.9 0-3.9 1.5-7.9 5.4-7.9 3.7 0 5.2 4 5.2 7.9 0 4.7-2 7.9-5.2 7.9zM348.8 29.9c-3.8 0-6.9 1.5-8.8 4.3h-.1l-.4-3.7h-7.1c.1 2.4.2 5.4.2 8.9v28.2h8.2V54.4h.1c1.2 1.7 3.7 3 6.9 3 5.9 0 12-4.5 12-14.1-.1-8.4-5.2-13.4-11-13.4zm-3 21.2c-2.4 0-4.3-1.7-4.8-3.9-.1-.5-.2-1.1-.2-1.7v-3.6c0-.5.1-1 .2-1.5.5-2.4 2.6-4.2 4.9-4.2 3.7 0 5.6 3.2 5.6 7.4-.1 4.6-2.2 7.5-5.7 7.5z"/>
</svg>
