<svg xmlns="http://www.w3.org/2000/svg" xml:space="preserve" viewBox="0 0 360 80">
  	<defs>
        <style>
          svg {
            fill: #9ca3af;
          }
          @media (prefers-color-scheme:dark) {
            svg {
              fill: #94a3b8;
            }
          }
        </style>
    </defs>
  <path d="M136.6 16.8c6.9.1 12 2.1 15.1 6 3.1 3.9 4.1 9.3 3.1 16.1-.4 3.1-1.3 6.2-2.7 9.2-1.4 3-3.2 5.7-5.6 8.1-2.9 3.1-6.1 5-9.4 5.8-3.3.8-6.8 1.2-10.4 1.2H116L112.6 80h-12.2L113 16.8h23.6zm104.5 0c6.9.1 12 2.1 15.1 6 3.1 3.9 4.1 9.3 3.1 16.1-.4 3.1-1.3 6.2-2.7 9.2-1.4 3-3.2 5.7-5.6 8.1-2.9 3.1-6.1 5-9.4 5.8-3.3.8-6.8 1.2-10.4 1.2h-10.6L217.1 80h-12.2l12.6-63.2h23.6zM180.9 0l-3.4 16.8h10.9c6 .1 10.5 1.4 13.4 3.7 3 2.3 3.9 6.8 2.6 13.4l-5.9 29.3h-12.3l5.6-28c.6-2.9.4-5-.5-6.3-.9-1.2-3-1.9-6.1-1.9l-9.8-.1-7.2 36.2H156L168.7 0h12.2zm-53.8 26.9c-.7.1-1.4.1-2 .1h-1.8L118 53.3c.4.1.7.1 1.1.1h1.2c5.6.1 10.3-.5 14.1-1.7 3.8-1.2 6.3-5.5 7.6-12.9 1.1-6.2 0-9.7-3.2-10.7-3.1-.8-7-1.3-11.7-1.2zm104.4 0c-.7.1-1.4.1-2 .1h-1.8l-5.3 26.3c.4.1.7.1 1.1.1h1.2c5.6.1 10.3-.5 14.1-1.7 3.8-1.2 6.3-5.5 7.6-12.9 1.1-6.2 0-9.7-3.2-10.7-3.1-.8-7-1.3-11.7-1.2z"/>
</svg>
