<svg xmlns="http://www.w3.org/2000/svg" xml:space="preserve" viewBox="0 0 360 80">
	<defs>
        <style>
          svg {
            fill: #9ca3af;
          }
          @media (prefers-color-scheme:dark) {
            svg {
              fill: #94a3b8;
            }
          }
        </style>
    </defs>
  <path d="M91.6 12.4H46.4L24.8 33.8c-.2.2-.3.5-.2.8.1.2.4.4.7.4h21.2v21.9c0 .8.7 1.5 1.5 1.5h22.2v20.9c0 .3.2.5.4.7.3.1.6.1.8-.1L93 58.4V13.8c0-.4-.1-.7-.4-1-.3-.3-.6-.4-1-.4zM147.2 35.6c-2-.8-4.1-1.4-6.2-1.9-2.1-.5-3.8-1.1-5.2-1.8-1.5-.7-2.2-1.6-2.2-2.6s.4-1.8 1.3-2.4 2-.9 3.4-.9c2.6 0 4.6 1 5.9 3 .1.1.2.2.4.1l8.9-3.9c.1 0 .1-.1.1-.1v-.2c-.1-.2-.2-.4-.3-.5-1.5-2.4-3.5-4.1-6-5.5-2.7-1.5-5.8-2.2-9.1-2.2-4.4 0-8.1 1.2-11.1 3.5s-4.4 5.4-4.4 9.4c0 2.6.7 4.9 2.2 6.6 1.4 1.7 3.2 3 5.3 3.8 2.1.8 4.1 1.5 6.2 2 2.1.5 3.8 1.2 5.3 1.8 1.5.7 2.2 1.5 2.2 2.6 0 2.3-1.9 3.5-5.7 3.5-3.6 0-6.1-1.3-7.4-4-.1-.2-.4-.3-.6-.2l-8.9 3.9c-.1 0-.1.1-.1.1v.2l.1.2c3 6.2 8.6 9.2 16.8 9.2 4.7 0 8.6-1.1 11.7-3.3 3.2-2.2 4.7-5.4 4.7-9.6 0-2.7-.7-5-2.2-6.9-1.2-1.8-3-3.1-5.1-3.9zM216.5 16.9c-2.6 0-5 .7-7.3 1.9-2.2 1.3-3.9 3.2-4.9 5.8l-.1-6.7c0-.1-.1-.2-.2-.2h-10c-.1 0-.2.1-.2.2v40c0 .1.1.2.2.2h10.1c.1 0 .1 0 .2-.1s.1-.1.1-.2V38.9c0-3.9 1.3-6.7 3.8-8.3 2.4-1.6 5.2-2.2 8.2-2 .1 0 .2-.1.3-.1.1-.1.1-.2.1-.3V17.1c0-.1-.1-.2-.3-.2zM185 17.7h-9V6.4c0-.1-.1-.1-.1-.2-.1 0-.2-.1-.2 0l-9.9 4.3c-.2.1-.3.2-.3.4v6.7h-6.9c-.1 0-.2.1-.2.2v9.6c0 .1.1.2.2.2h6.9v16.8c0 5.5 1.5 9.4 4.4 11.6 2.9 2.1 7.9 2.8 15 2.1h.2c.1 0 .2-.1.2-.2v-9c0-.1 0-.1-.1-.2s-.1-.1-.2-.1h-.2c-1.8.1-3.3.1-4.6 0-1.3-.1-2.4-.4-3.1-1.1-.7-.7-1.1-1.7-1.1-3.1V27.7h9c.1 0 .2-.1.2-.2V18c0-.2-.1-.3-.2-.3zM264.4 17.7h-10.1c-.1 0-.1 0-.2.1s-.1.1-.1.2v4.6c-3.2-4-7.6-5.9-13.3-5.9-5.5 0-10.2 2.1-14 6.2-3.9 4.1-5.8 9.2-5.8 15.1s1.9 11.1 5.8 15.1c3.9 4.1 8.6 6.2 14 6.2 5.7 0 10.2-1.9 13.3-5.9V58c0 .1.1.2.2.2h10.1c.1 0 .2-.1.2-.2V18c0-.1 0-.1-.1-.2.1-.1 0-.1 0-.1zm-13.6 28.4c-2.2 2.1-4.9 3.2-8.1 3.2-3.3 0-6-1-8.1-3.2-2.1-2.2-3.2-4.9-3.2-8.3 0-3.3 1-6.1 3.2-8.2 2.1-2.1 4.8-3.2 8.1-3.2s6 1.1 8.1 3.2c2.1 2.1 3.2 4.9 3.2 8.2 0 3.5-1.1 6.2-3.2 8.3zM333.9 17.7h-10.1c-.1 0-.2.1-.2.2v40c0 .1.1.2.2.2l10.1-.1c.1 0 .2-.1.2-.2V17.9c.1-.1 0-.2-.2-.2zM328.9 12.8c1.8 0 3.3-.6 4.6-1.9 1.3-1.3 1.9-2.7 1.9-4.5 0-1.7-.7-3.2-1.9-4.5-1.2-1.3-2.9-1.9-4.6-1.9-1.8 0-3.3.7-4.6 1.9s-1.9 2.8-1.9 4.6c0 1.7.7 3.2 1.9 4.4s2.8 1.9 4.6 1.9zM297.4 16.6c-5.7 0-10.2 1.9-13.3 5.9v-4.6c0-.1-.1-.2-.2-.2h-10.1c-.1 0-.2.1-.2.2V74c0 .1.1.2.2.2h10.1c.1 0 .2-.1.2-.2V53.3c3.1 4 7.5 5.9 13.3 5.9 5.5 0 10.2-2.1 14.1-6.2 3.9-4.1 5.8-9.2 5.8-15.1s-1.9-11-5.8-15.1-8.6-6.2-14.1-6.2zm6.1 29.5c-2.2 2.1-4.9 3.2-8.1 3.2-3.3 0-6-1-8.1-3.2-2.1-2.2-3.2-4.9-3.2-8.3 0-3.3 1-6.1 3.2-8.2 2.1-2.1 4.8-3.2 8.1-3.2s6 1.1 8.1 3.2c2.1 2.1 3.2 4.9 3.2 8.2.1 3.5-1 6.2-3.2 8.3z" class="st0"/>
</svg>
