<svg xmlns="http://www.w3.org/2000/svg" xml:space="preserve" viewBox="0 0 360 80">
	    <defs>
        <style>
          svg {
            fill: #9ca3af;
          }
          @media (prefers-color-scheme:dark) {
            svg {
              fill: #94a3b8;
            }
          }
        </style>
    </defs>
  <path d="M59.7 0c-22.1 0-40 17.9-40 40s17.9 40 40 40 40-17.9 40-40c-.1-22.1-17.9-40-40-40zm21.5 23.1c-1.9 0-3.1-1-3.1-2.7 0-.6.1-1.1.6-1.9.4-.9.6-.9.4-1.3 0-1-1.6-1.1-2.1-1.1-6 .1-7.5 8.3-8.8 14.8l-.6 3.4c3.4.6 5.8-.1 7.3-1 2-1.3-.6-2.6-.3-4s1.6-2.1 2.7-2.1c1.4 0 2.6 1.4 2.4 3 0 2.6-3.4 6.1-10.2 6-.9 0-1.6-.1-2.3-.1l-1.3 7.1c-1.1 5.4-2.7 12.7-8.1 19.1-4.7 5.6-9.4 6.4-11.5 6.5-3.8.3-6.5-1.9-6.5-4.7-.1-2.7 2.3-4.3 4-4.3 2.1-.1 3.6 1.4 3.7 3.3 0 1.6-.7 2-1.3 2.3-.3.3-.9.6-.9 1.1 0 .3.3.9 1.1.9 1.7 0 2.8-.9 3.6-1.4 3.8-3.3 5.4-8.8 7.3-19.1l.4-2.4c.7-3.3 1.4-7 2.6-10.7-2.7-2-4.4-4.6-8-5.6-2.6-.7-4-.1-5.1 1.3-1.3 1.6-.9 3.7.4 5l2 2.3c2.6 2.8 3.8 5.1 3.4 8.1-.9 4.8-6.5 8.5-13.4 6.4-5.8-1.9-6.8-5.8-6.1-8.1.6-2 2.1-2.4 3.7-1.9 1.7.6 2.3 2.6 1.9 4.1 0 .1-.1.4-.3.9-.1.4-.6.9-.7 1.3-.4 1.3 1.3 2.1 2.4 2.4 2.6.9 5.1-.6 5.8-2.7.6-2-.6-3.3-1.1-3.8l-2.4-2.6c-1.1-1.3-3.6-4.7-2.4-8.7.4-1.6 1.4-3.1 2.8-4.1 3-2.3 6.3-2.6 9.4-1.7 4 1.1 6 3.8 8.4 5.8 1.4-4.1 3.3-8.1 6.3-11.5 2.7-3.1 6.1-5.3 10.2-5.4 4-.1 7.1 1.7 7.3 4.6-.5.7-1.2 3.2-3.6 3.2zM262 28.8c9.3 0 15.4 6.7 15.4 15.8 0 8.7-6.3 15.8-15.4 15.8-9.1 0-15.5-7.1-15.5-15.8.1-9.2 6.2-15.8 15.5-15.8zm0 27.1c6.5 0 9.4-6 9.4-11.4 0-5.7-3.6-11.4-9.4-11.4-6 0-9.5 5.6-9.5 11.4 0 5.5 2.9 11.4 9.5 11.4zm-16.2-24.3v-2.1h-8v-2.8c0-4.1.6-7.3 5.4-7.3h.3c1.3.1 2.4-1 2.6-2.3l.1-1.9c-1.1-.1-2.3-.3-3.7-.3-8.3 0-10.1 4.8-10.1 12.2v2.4h-7.1V32c.1 1.3 1.3 2.1 2.6 2.1h4.6v25.6h3.1c1.3 0 2.3-1 2.6-2.1V34h5.6c.8-.1 2-1.1 2-2.4zm-74.5-2.1c-1.1 0-2.3.9-2.8 1.9l-7.7 23.2h-.1l-7.4-23.2c-.4-1.1-1.7-1.9-2.8-1.9h-4l10.2 28.3c.4 1 1.1 2.6 1.1 3.3 0 .6-1.7 7.5-6.7 7.5h-.4c-1.3 0-2.3.9-2.4 2.1l-.1 2c1 .1 2 .4 3.8.4 7.4 0 9.5-6.7 11.7-12.5l11.1-31c-.1 0-3.5-.1-3.5-.1zm-35.4 6.1c-4.6-2.4-9.7-4-9.7-8.7 0-5 4.7-6.4 8.3-6.4 1.6 0 2.8.1 4 .4 1.3.1 2.4-.9 2.6-2.1l.1-1.9c-2.3-.6-4.8-.9-7-.9-7.8 0-13.5 4-13.5 11.4 0 6.5 4.4 9.1 9.1 11.4 4.7 2.3 9.7 4.1 9.8 9.4 0 5.6-5.4 7.7-9.1 7.7-2.1 0-4.6-.6-6.5-1.1-1.3-.1-2.3.9-2.4 2.4l-.1 1.6c2.7.9 5.6 1.7 8.4 1.7 8.7 0 15.5-3.6 15.5-12.5-.4-7.1-4.8-10-9.5-12.4zm84.4 24.2c.1 0 .1 0 0 0 1.3 0 2.3-.9 2.4-2V40.3c0-6.5-2.8-11.5-10.5-11.5-2.7 0-7.3 1.6-9.4 5.8-1.6-4.1-5.1-5.8-8.7-5.8-4.4 0-7.5 1.6-9.7 5.1h-.1V32c0-1.4-1.1-2.6-2.6-2.6H179v30.3h3c1.4 0 2.6-1.1 2.6-2.6V44.4c0-5.7 2.3-11.2 8-11.2 4.6 0 5.4 4.7 5.4 8.4v18.2h3.1c1.3 0 2.4-1 2.6-2.3v-13c0-5.7 2.3-11.2 8-11.2 4.6 0 5.4 4.7 5.4 8.4v18.1h3.2zm86.4 0c1.4 0 2.4-1.1 2.6-2.4V41.7c0-8.1-3.6-13-11.4-13-4.3 0-8.3 2.1-10 5.6h-.1V32c0-1.4-1.1-2.6-2.6-2.6h-2.8v30.3h3.1c1.3 0 2.4-1 2.6-2.3V45.8c0-7.4 2.8-12.5 9.3-12.5 4.8.3 6.4 3.7 6.4 10.8v15.7h2.9zm30-30.3c-1.1 0-2.4.9-2.8 1.9l-7.7 23.2h-.2l-7.4-23.2c-.4-1.1-1.6-1.9-2.8-1.9H312l10.2 28.3c.3 1 1.1 2.6 1.1 3.3 0 .6-1.7 7.5-6.7 7.5h-.4c-1.3 0-2.3.9-2.4 2.1l-.1 2c1 .1 2 .4 3.8.4 7.4 0 9.5-6.7 11.7-12.5l11.1-31-3.6-.1z"/>
</svg>
