<svg xmlns="http://www.w3.org/2000/svg" xml:space="preserve" viewBox="0 0 235.1 66.1">
    <defs>
    <style>
      svg {
        fill: #9ca3af;
      }
      @media (prefers-color-scheme:dark) {
        svg {
          fill: #94a3b8;
        }
      }
    </style>
  </defs>
    <path d="M33.1 5C17.6 5 5 17.6 5 33.1c0 15.5 12.6 28.1 28.1 28.1 15.5 0 28.1-12.6 28.1-28.1C61.1 17.6 48.6 5 33.1 5zm15.1 16.2c-1.3 0-2.2-.7-2.2-1.9 0-.4.1-.8.4-1.3.3-.6.4-.6.3-.9 0-.7-1.1-.8-1.5-.8-4.2.1-5.3 5.8-6.2 10.4l-.4 2.4c2.4.4 4.1-.1 5.1-.7 1.4-.9-.4-1.8-.2-2.8.2-1 1.1-1.5 1.9-1.5 1 0 1.8 1 1.7 2.1 0 1.8-2.4 4.3-7.2 4.2-.6 0-1.1-.1-1.6-.1l-.9 5c-.8 3.8-1.9 8.9-5.7 13.4-3.3 3.9-6.6 4.5-8.1 4.6-2.7.2-4.6-1.3-4.6-3.3-.1-1.9 1.6-3 2.8-3 1.5-.1 2.5 1 2.6 2.3 0 1.1-.5 1.4-.9 1.6-.2.2-.6.4-.6.8 0 .2.2.6.8.6 1.2 0 2-.6 2.5-1 2.7-2.3 3.8-6.2 5.1-13.4l.3-1.7c.5-2.3 1-4.9 1.8-7.5-1.9-1.4-3.1-3.2-5.6-3.9-1.8-.5-2.8-.1-3.6.9-.9 1.1-.6 2.6.3 3.5l1.4 1.6c1.8 2 2.7 3.6 2.4 5.7-.6 3.4-4.6 6-9.4 4.5-4.1-1.3-4.8-4.1-4.3-5.7.4-1.4 1.5-1.7 2.6-1.3 1.2.4 1.6 1.8 1.3 2.9 0 .1-.1.3-.2.6s-.4.6-.5.9c-.3.9.9 1.5 1.7 1.7 1.8.6 3.6-.4 4.1-1.9.4-1.4-.4-2.3-.8-2.7l-1.7-1.8c-.8-.9-2.5-3.3-1.7-6.1.3-1.1 1-2.2 2-2.9 2.1-1.6 4.4-1.8 6.6-1.2 2.8.8 4.2 2.7 5.9 4.1 1-2.9 2.3-5.7 4.4-8.1 1.9-2.2 4.3-3.7 7.2-3.8 2.8-.1 5 1.2 5.1 3.2-.2.6-.7 2.3-2.4 2.3zM175.2 25.2c6.5 0 10.8 4.7 10.8 11.1 0 6.1-4.4 11.1-10.8 11.1s-10.9-5-10.9-11.1c.1-6.4 4.4-11.1 10.9-11.1zm0 19.1c4.6 0 6.6-4.2 6.6-8 0-4-2.5-8-6.6-8-4.2 0-6.7 3.9-6.7 8 0 3.8 2.1 8 6.7 8zM163.8 27.2v-1.5h-5.6v-2c0-2.9.4-5.1 3.8-5.1h.2c.9.1 1.7-.7 1.8-1.6l.1-1.3c-.8-.1-1.6-.2-2.6-.2-5.8 0-7.1 3.4-7.1 8.6v1.7h-5v1.7c.1.9.9 1.5 1.8 1.5h3.2v18h2.2c.9 0 1.6-.7 1.8-1.5V28.9h3.9c.7-.1 1.5-.8 1.5-1.7zM111.5 25.7c-.8 0-1.6.6-2 1.3l-5.4 16.3h-.1L98.8 27c-.3-.8-1.2-1.3-2-1.3H94l7.2 19.9c.3.7.8 1.8.8 2.3 0 .4-1.2 5.3-4.7 5.3H97c-.9 0-1.6.6-1.7 1.5l-.1 1.4c.7.1 1.4.3 2.7.3 5.2 0 6.7-4.7 8.2-8.8l7.8-21.8-2.4-.1zM86.6 30c-3.2-1.7-6.8-2.8-6.8-6.1 0-3.5 3.3-4.5 5.8-4.5 1.1 0 2 .1 2.8.3.9.1 1.7-.6 1.8-1.5l.1-1.3c-1.6-.4-3.4-.6-4.9-.6-5.5 0-9.5 2.8-9.5 8 0 4.6 3.1 6.4 6.4 8 3.3 1.6 6.8 2.9 6.9 6.6 0 3.9-3.8 5.4-6.4 5.4-1.5 0-3.2-.4-4.6-.8-.9-.1-1.6.6-1.7 1.7l-.1 1.1c1.9.6 3.9 1.2 5.9 1.2 6.1 0 10.9-2.5 10.9-8.8-.2-5-3.3-7-6.6-8.7zM145.9 47c.1 0 .1 0 0 0 .9 0 1.6-.6 1.7-1.4V33.3c0-4.6-2-8.1-7.4-8.1-1.9 0-5.1 1.1-6.6 4.1-1.1-2.9-3.6-4.1-6.1-4.1-3.1 0-5.3 1.1-6.8 3.6h-.1v-1.3c0-1-.8-1.8-1.8-1.8h-1.9V47h2.1c1 0 1.8-.8 1.8-1.8v-9c0-4 1.6-7.9 5.6-7.9 3.2 0 3.8 3.3 3.8 5.9V47h2.2c.9 0 1.7-.7 1.8-1.6v-9.1c0-4 1.6-7.9 5.6-7.9 3.2 0 3.8 3.3 3.8 5.9V47h2.3zM206.6 47c1 0 1.7-.8 1.8-1.7v-11c0-5.7-2.5-9.1-8-9.1-3 0-5.8 1.5-7 3.9h-.1v-1.6c0-1-.8-1.8-1.8-1.8h-2V47h2.2c.9 0 1.7-.7 1.8-1.6v-8.2c0-5.2 2-8.8 6.5-8.8 3.4.2 4.5 2.6 4.5 7.6v11h2.1zM227.7 25.7c-.8 0-1.7.6-2 1.3l-5.4 16.3h-.1L215 27c-.3-.8-1.1-1.3-2-1.3h-2.7l7.2 19.9c.2.7.8 1.8.8 2.3 0 .4-1.2 5.3-4.7 5.3h-.3c-.9 0-1.6.6-1.7 1.5l-.1 1.4c.7.1 1.4.3 2.7.3 5.2 0 6.7-4.7 8.2-8.8l7.8-21.8-2.5-.1z"/>
</svg>