<svg xmlns="http://www.w3.org/2000/svg" xml:space="preserve" viewBox="0 0 360 80">
  	    <defs>
        <style>
          svg {
            fill: #9ca3af;
          }
          @media (prefers-color-scheme:dark) {
            svg {
              fill: #94a3b8;
            }
          }
        </style>
    </defs>
  <path d="m46.4 9 15.3 6.2v49.5L46.2 71 21.8 46.5 6.1 58.6 0 55.5v-31l6.2-2.9 15.7 12.2L46.4 9zM6.2 30.8v18.7l9.3-9.6-9.3-9.1zm24 9.2 16 12.6V27.4L30.2 40zm82.4-18.7L98.8 58.6H94L80.4 21.3h4.8l10.3 29.5c.3 1 .5 2.1.7 3.3h.2c.2-1 .3-2.2.9-3.4l10.4-29.5c0 .1 4.9.1 4.9.1zm5.3 3.9c-.7 0-1.4-.3-1.9-.9-.5-.5-.9-1-.9-1.9 0-.9.3-1.4.9-2.1s1.2-.9 1.9-.9c.9 0 1.4.3 2.1.9.5.5.9 1.2.9 2.1 0 .7-.3 1.4-.9 1.9-.7.6-1.2.9-2.1.9zm2.1 33.4h-4.3V31.9h4.3v26.7zm5.5-.9V53c2.4 1.7 4.8 2.6 7.8 2.6 3.8 0 5.7-1.2 5.7-3.8 0-.7-.2-1.4-.5-1.9s-.7-.9-1.4-1.4c-.7-.5-1.2-.7-1.9-1-.7-.3-1.6-.7-2.4-1-1.2-.5-2.2-.9-3.1-1.4-.9-.5-1.7-1-2.2-1.6-.5-.5-1-1.2-1.4-2.1-.3-.7-.5-1.7-.5-2.8 0-1.2.3-2.4.9-3.3.5-1 1.4-1.7 2.2-2.4 1-.7 2.1-1.2 3.3-1.6 1.2-.3 2.4-.5 3.8-.5 2.2 0 4.3.3 6.2 1.2v4.3c-1.9-1.2-4.3-1.9-6.7-1.9-.9 0-1.6.2-2.2.3-.7.2-1.2.5-1.7.7-.5.2-.9.7-1 1.2-.2.5-.3 1-.3 1.6 0 .7.2 1.2.3 1.7.2.5.7.9 1 1.2.5.3 1 .7 1.7 1 .7.3 1.6.7 2.4 1 1.2.5 2.2.9 3.1 1.4.9.5 1.7 1 2.4 1.6s1.2 1.4 1.6 2.1c.3.9.5 1.7.5 2.8 0 1.4-.3 2.4-.9 3.4s-1.4 1.7-2.4 2.4-2.1 1.2-3.4 1.4c-1.4.2-2.6.5-4 .5-2.7.5-5.1 0-6.9-1zm44.1.9h-4.3v-4.3h-.2c-1.7 3.3-4.5 4.8-8.3 4.8-6.4 0-9.5-3.8-9.5-11.4v-16h4.3V47c0 5.7 2.2 8.4 6.5 8.4 2.1 0 3.8-.7 5.2-2.2 1.4-1.6 2.1-3.6 2.1-6V31.9h4.3v26.6l-.1.1zm26 0h-4.3v-4.1h-.2c-1.9 3.3-4.7 4.8-8.3 4.8-2.6 0-4.8-.7-6.2-2.1-1.6-1.4-2.2-3.3-2.2-5.7 0-5 2.9-7.9 8.8-8.8l7.9-1.2c0-4.5-1.9-6.7-5.5-6.7-3.3 0-6.2 1-8.8 3.3v-4.3c2.6-1.7 5.7-2.6 9.1-2.6 6.2 0 9.5 3.3 9.5 10v17.4h.2zm-4.1-13.5-6.4.9c-2.1.3-3.4.7-4.5 1.6-1 .7-1.6 1.9-1.6 3.8 0 1.4.5 2.4 1.4 3.3.9.9 2.2 1.2 3.8 1.2 2.1 0 3.8-.7 5.2-2.2 1.4-1.6 2.1-3.4 2.1-5.7v-2.9zm14.9 13.5H202V19.2h4.3v39.4zm13.2-1.4V52c.5.5 1.4 1 2.1 1.4.7.3 1.7.7 2.6 1 .9.3 1.9.5 2.8.7.9.2 1.7.2 2.6.2 2.8 0 4.7-.5 6-1.6 1.4-1 2.1-2.4 2.1-4.3 0-1-.2-1.9-.7-2.6-.5-.7-1-1.4-1.9-2.1-.9-.7-1.7-1.2-2.8-1.7s-2.2-1.2-3.4-1.7c-1.4-.7-2.6-1.4-3.6-2.1-1.2-.7-2.1-1.4-2.9-2.2-.9-.9-1.6-1.7-1.9-2.8-.5-1-.7-2.2-.7-3.6 0-1.7.3-3.3 1.2-4.5.7-1.2 1.7-2.2 2.9-3.1 1.2-.9 2.6-1.4 4.1-1.9 1.6-.5 3.1-.5 4.8-.5 3.6 0 6.4.5 8.1 1.4v5c-2.2-1.6-5-2.2-8.4-2.2-1 0-1.9.2-2.9.3-1 .2-1.9.5-2.6 1s-1.4 1-1.9 1.7-.7 1.6-.7 2.6.2 1.7.5 2.4.9 1.4 1.6 1.9 1.6 1.2 2.6 1.7 2.1 1.2 3.4 1.7c1.4.7 2.6 1.4 3.8 2.1 1.2.7 2.2 1.6 3.1 2.4.9.9 1.6 1.9 2.1 2.9s.9 2.2.9 3.6c0 1.9-.3 3.4-1 4.7-.7 1.2-1.7 2.2-2.9 3.1s-2.6 1.4-4.3 1.7c-1.6.3-3.3.5-5 .5-.5 0-1.4 0-2.2-.2-.9-.2-1.7-.2-2.6-.3-.9-.2-1.7-.3-2.6-.7-1.1-.2-1.8-.5-2.3-.7zm39.4 1.2c-1 .5-2.4.9-4 .9-4.7 0-7.1-2.6-7.1-7.8V35.7h-4.7V32h4.7v-6.5l4.3-1.4V32h6.7v3.6h-6.7v15c0 1.7.3 3.1.9 3.8.5.7 1.6 1.2 3.1 1.2 1 0 2.1-.3 2.8-.9v3.7zm26.4.2h-4.3v-4.3h-.2c-1.7 3.3-4.5 4.8-8.3 4.8-6.4 0-9.5-3.8-9.5-11.4v-16h4.3V47c0 5.7 2.2 8.4 6.5 8.4 2.1 0 3.8-.7 5.2-2.2 1.4-1.6 2.1-3.6 2.1-6V31.9h4.3l-.1 26.7zm30.6 0h-4.3v-4.5h-.2c-1.9 3.4-5 5.2-9.1 5.2-3.3 0-6-1.2-8.1-3.6s-2.9-5.7-2.9-9.8c0-4.5 1-7.9 3.3-10.7 2.2-2.6 5.2-4 9-4 3.6 0 6.4 1.4 7.9 4.3h.2V19.1h4.3v39.5zm-4.3-12.1v-4c0-2.2-.7-4-2.1-5.5-1.4-1.6-3.3-2.2-5.3-2.2-2.6 0-4.7 1-6.2 2.9s-2.2 4.5-2.2 7.9c0 3.1.7 5.5 2.1 7.2 1.4 1.7 3.3 2.8 5.9 2.8 2.4 0 4.3-.9 5.9-2.6 1.2-1.7 1.9-3.7 1.9-6.5zM326 25.2c-.7 0-1.4-.3-1.9-.9-.5-.5-.9-1.2-.9-2.1s.3-1.4.9-2.1c.5-.5 1.2-.9 1.9-.9.9 0 1.4.3 2.1.9.5.5.9 1.2.9 2.1 0 .7-.3 1.4-.9 1.9-.7.8-1.3 1.1-2.1 1.1zm2 33.4h-4.3V31.9h4.3v26.7zm18.9.6c-4 0-7.1-1.2-9.5-3.8-2.4-2.4-3.6-5.9-3.6-10 0-4.5 1.2-7.9 3.6-10.5 2.4-2.6 5.7-3.8 10-3.8 4 0 7.1 1.2 9.3 3.6 2.2 2.4 3.3 5.9 3.3 10.2s-1.2 7.8-3.6 10.2c-2.1 2.9-5.4 4.1-9.5 4.1zm.4-24.2c-2.8 0-5 .9-6.5 2.8-1.6 1.9-2.4 4.5-2.4 7.8 0 3.1.9 5.7 2.4 7.4 1.6 1.9 3.8 2.8 6.5 2.8s4.8-.9 6.4-2.8c1.6-1.7 2.2-4.3 2.2-7.6s-.7-5.9-2.2-7.8c-1.5-1.8-3.7-2.6-6.4-2.6z"/>
</svg>
