<svg xmlns="http://www.w3.org/2000/svg" width="700pt" height="700pt" version="1.0" viewBox="0 0 700 700">
    <path d="M269.5 3.8c-9.1 5-62.8 42.6-71.3 49.8-7.4 6.4-12.9 14.8-17.8 27.4-1 2.5-3.4 7.1-5.5 10.3l-3.7 5.8-2-2.6c-3.7-4.7-5.7-2.2-2.7 3.5 1.5 2.9 1.4 3-1.5 5.7-3.3 2.9-8.8 11.5-11 17.3-.8 1.9-3.2 5.7-5.3 8.5-9.4 11.9-13.2 30-12.7 60.5.2 6.9.1 14.1 0 16-.9 11.2.2 71.4 1.5 83 .3 1.9.7 9 1.1 15.6l.7 12.1-4.1 4.5c-4 4.3-11.3 7.8-16.4 7.8-2.6 0-8.9 3.3-11.5 6.2-1.2 1.3-2.9 4-3.8 6-.8 2.1-2.6 4.5-4 5.4-1.3.9-3.7 4.1-5.2 7.1-2.3 4.8-2.7 6.8-2.7 14.7 0 27.3 7.2 56 19.8 78.1 4.5 8.1 7.9 12.1 12 14.2 1.6.8 4 2.8 5.3 4.3 1.3 1.6 4.1 3.9 6.1 5.1 9.2 5.5 10.4 7.7 14.1 26.2 1.6 7.8 4.5 18.7 6.4 24.2 2 5.5 4.5 14.1 5.6 19 2.5 10.9 9.8 29.5 15.1 38.5 2.1 3.6 4.6 8.5 5.5 11 4 10.5 4.5 11.3 7.4 10.7 2.4-.5 3.6.3 8.7 5.6 3.3 3.4 6.8 7.9 7.9 10.1 2.2 4.3 6.2 7.9 18.1 16.4 4.5 3.1 15.3 12.6 23.9 21 25.5 24.7 36.7 32.8 54.8 39.6 25.6 9.6 66.7 9.4 96-.4 11.9-4 28.3-12.2 33.2-16.5 4-3.6 17.7-16 22.3-20.2 1.4-1.3 6.3-5.8 11.1-10 37.2-33.5 59.4-58.7 69.6-79.1 4.5-9 9.2-23.3 9.9-29.7.2-2.8 1.2-8.8 2.1-13.5.9-4.7 1.9-9.6 2.1-11 .3-1.4 1.8-9.3 3.4-17.5 1.5-8.3 3.1-16.9 3.5-19.3.6-4 .9-4.3 3.5-3.8 3.6.5 9.4-2.8 8.6-5-.3-.8-.1-1.2.4-.9 1.8 1.1 8.4-2.9 13.7-8.2 8.1-8.1 17.7-29.1 24-52.3 2.4-8.7 2.6-11.4 2.9-32.5.2-14.9-.1-24.1-.8-26-.6-1.7-2.9-5.7-5-9-6.1-9.4-13.3-13.4-24.4-13.5-8.8 0-8.9-.3-8.7-17.9.4-39.9 1.4-88.2 2-93.1.4-3 .6-6.6.6-8 0-3.7-1.4-17.3-1.8-18.7-.3-.7.9-2 2.5-2.8l2.9-1.5-2-5.5c-1.3-3.6-2-9-2.3-16-.4-10.1-.5-10.7-4.8-18.7-2.5-4.6-5.3-10.3-6.2-12.8-.9-2.5-3.4-6.3-5.5-8.5-6-6.4-6.7-11.1-3.1-22 3-9 3.1-9.9 3.5-21.9.4-11.7.1-13.6-2.1-13.6-1.7 0-2.8 2.7-3.9 9.5-.5 2.7-.9 5.2-.9 5.5-.1.5-1.6 4.2-3.8 9.5-1.1 2.6-1.3.6-1.8-15.5-.5-14.6-1-19.4-2.4-22.8-1.8-4.2-4.5-5.7-4.7-2.5 0 1.9-.4 5.1-1.3 10.4-.5 3.3-1.9 18-1.9 20.6-.1 2.9-1.4.8-4.6-7.5-1.9-4.8-4.1-10.3-4.9-12.2-.8-1.9-1.6-4.9-1.8-6.7-.5-5.4-4.9-12.7-9.4-15.6-1.6-1-3-3.3-3.8-6.2-.6-2.5-1.8-4.5-2.5-4.5-2.2 0-5.7 3-8.3 7.2l-2.5 3.9-1.8-2.3c-1-1.3-3.6-5.5-5.9-9.4-2.3-3.9-5.7-9-7.6-11.3L476.1 9l-1.5 5.4c-2.6 8.7-5.1 9.5-17.7 5.2-7-2.3-24.3-7-30-8.1C409.8 8.1 379 6.6 360 8.2c-5.1.4-8 .1-13.4-1.7-5.1-1.7-7.8-2-10.5-1.4-4 .9-8.1 1.7-12.6 2.4-5.2.9-15.6.9-24.5.1-11.4-1.2-12-1.1-19.7 2.4-7.9 3.6-9.8 2.6-5.2-2.9 5.3-6.5 3.5-7.8-4.6-3.3z"/>
</svg>
