<svg xmlns="http://www.w3.org/2000/svg" xml:space="preserve" viewBox="0 0 360 80">
	<defs>
        <style>
          svg {
            fill: #9ca3af;
          }
          @media (prefers-color-scheme:dark) {
            svg {
              fill: #94a3b8;
            }
          }
        </style>
    </defs>
  <path d="M85.3 38.6h2.8v2.8h-2.8z"/>
	<path d="M94.2 17.4C84.7 12 75.2 6.5 65.7 1.1c-2.6-1.5-5-1.4-7.6.1-3.8 2.2-22.7 13-28.3 16.3-2.3 1.3-3.4 3.4-3.4 6.1v33c0 1.3.3 2.5.8 3.5.6 1 1.4 1.9 2.6 2.6C35.4 66 54.3 76.8 58.1 79c2.5 1.5 5 1.6 7.6.1 9.5-5.5 19-10.9 28.4-16.4 1.2-.7 2-1.5 2.6-2.6.5-1 .8-2.2.8-3.5v-33c0-1.3-.3-2.5-.9-3.6-.5-1.1-1.3-1.9-2.4-2.6zM62 63.6c-8.8 0-16.4-4.8-20.5-11.9-2-3.5-3.1-7.5-3.1-11.8 0-13 10.6-23.6 23.6-23.6 8.7 0 16.4 4.8 20.5 11.8L72.2 34c-2-3.5-5.8-5.9-10.2-5.9-6.5 0-11.8 5.3-11.8 11.8 0 2.1.6 4.1 1.6 5.8 2 3.5 5.8 5.9 10.2 5.9 4.4 0 8.2-2.4 10.3-6l10.3 5.9C78.5 58.8 70.8 63.6 62 63.6zm30.4-25h-1.9v2.8h1.9v2.3h-1.9v1.9h-2.3v-1.9h-2.8v1.9h-2.3v-1.9H81v-2.3h1.9v-2.8H81v-2.3h1.9v-1.9h2.3v1.9H88v-1.9h2.3v1.9h1.9v2.3zM147.1 52.9c-1.7 1-3.6 1.5-5.9 1.5-4 0-7.2-1.2-9.6-3.7-2.4-2.5-3.5-6-3.5-10.7 0-4.4 1.1-8 3.4-10.8 2.3-2.8 5.2-4.2 8.8-4.2 2.4 0 4.5.5 6.1 1.6 1.6 1 3 2.7 4 5.1l9.2-3.4c-1.7-3.8-4.2-6.8-7.4-9S144.9 16 140 16c-6.8 0-12.3 2.3-16.6 6.8-4.3 4.5-6.4 10.6-6.4 18.1 0 7.3 2.2 13 6.5 16.9s10.1 6 17.2 6c4.3 0 8.1-1 11.6-3.1 3.4-2.1 5.9-4.8 7.6-8.1l-9-4.2c-.8 2-2.1 3.5-3.8 4.5zM188.5 45.2c-2-1.7-4.9-2.8-8.8-3.3-2-.2-3.3-.6-4.1-1.1s-1.2-1.1-1.2-1.9c0-.9.3-1.6.9-2s1.6-.7 2.9-.7c1.2 0 2.4.2 3.5.7 1.1.4 2.3 1.1 3.6 2.1l4.9-5.9c-1.5-1.3-3.2-2.3-5.3-2.9s-4.3-1-6.6-1c-3.9 0-7 1.1-9.3 3.2-2.3 2.1-3.4 4.7-3.4 7.8 0 2.8.9 5.1 2.8 6.9s5 3 9.4 3.6c1.7.2 2.9.6 3.6 1.1.8.5 1.1 1.1 1.1 1.9 0 1-.4 1.7-1.2 2.2-.8.5-1.9.8-3.4.8s-2.9-.3-4.4-.9-3-1.7-4.6-3.2l-4.8 6.2c1.6 1.7 3.6 2.9 6 3.8s4.9 1.3 7.6 1.3c4 0 7.2-1 9.8-3 2.6-2 3.9-4.7 3.9-8.1.1-3.4-.9-5.9-2.9-7.6zM217.8 29.1c-1.9 0-3.8.5-5.7 1.4-1.9.9-3.4 2.1-4.4 3.5h-.1V14h-10.2v48.9h10.2V44.1c0-2 .6-3.7 1.7-5.1 1.1-1.3 2.6-2 4.4-2 1.7 0 3 .6 3.9 1.8.9 1.2 1.4 2.9 1.4 5.1v19h10V42.4c0-4.4-1-7.7-3-10-2-2.2-4.7-3.3-8.2-3.3zM249.8 29.1c-3.5 0-6.6.7-9.2 2.2-2.6 1.5-4.5 3.2-5.7 5l6.8 4.1c.9-1.4 2-2.4 3.2-3.2s2.5-1.1 4-1.1 2.8.4 3.8 1.2c1 .8 1.5 2 1.5 3.6v1l-8.8.9c-3.8.4-6.7 1.6-8.6 3.6s-2.9 4.5-2.9 7.4c0 3 1 5.4 3.1 7.1 2 1.7 4.5 2.6 7.3 2.6 2 0 3.9-.4 5.5-1.1 1.6-.8 3.1-1.9 4.3-3.4h.1v3.7h9.6V43.2c0-4.7-1.2-8.2-3.6-10.6-2.4-2.3-5.8-3.5-10.4-3.5zm4.5 20.4c0 2-.6 3.7-1.9 5-1.3 1.3-2.9 2-4.9 2-1.2 0-2.2-.3-2.9-1-.8-.7-1.2-1.5-1.2-2.6 0-1.2.3-2.1 1-2.8.7-.7 1.8-1.1 3.3-1.3l6.6-.6v1.3zM290.2 29.3c-2 0-3.8.5-5.3 1.6s-2.6 2.7-3.4 4.8h-.1v-5.9h-10.2v33h10.2V47.2c0-2.8.6-5 1.9-6.6 1.3-1.6 2.9-2.4 4.9-2.4.7 0 1.3.1 2 .2s1.4.3 2.1.5l2.2-8.7c-.7-.3-1.4-.5-2.1-.6-.7-.2-1.4-.3-2.2-.3zM329.9 33.4c-2.4-2.9-5.8-4.3-10.1-4.3-2.3 0-4.3.4-6.2 1.3-1.8.8-3.4 2.1-4.7 3.8h-.1v-4.3h-10.2v48.2h10.2v-18h.1c1.1 1.2 2.4 2.1 4 2.7s3.4.9 5.4.9c4.5 0 8.1-1.7 10.9-5s4.2-7.7 4.2-13.2c.1-5.2-1.1-9.2-3.5-12.1zm-8.8 19.7c-1.3 1.8-3.2 2.6-5.4 2.6-2 0-3.7-.7-5-2s-2-3.1-2-5.2v-3.4c0-2.4.7-4.4 2.1-5.9s3.2-2.2 5.3-2.2c2.2 0 3.9.7 5.1 2.1 1.2 1.4 1.8 3.6 1.8 6.4.1 3.4-.6 5.9-1.9 7.6z"/>
</svg>
