<svg xmlns="http://www.w3.org/2000/svg" xml:space="preserve" viewBox="0 0 360 80">
	<defs>
        <style>
          svg {
            fill: #9ca3af;
          }
          @media (prefers-color-scheme:dark) {
            svg {
              fill: #94a3b8;
            }
          }
        </style>
    </defs>
  <path d="M170.7 23.3c-1.7-.1-3 1.2-3.1 2.8V41c-7.1-5.7-17.5-4.6-23.2 2.5-2.3 2.9-3.6 6.6-3.6 10.3-.2 9.1 7.1 16.6 16.2 16.8 9.1.2 16.6-7.1 16.8-16.2v-28c0-.8-.3-1.6-.9-2.2-.6-.6-1.3-.9-2.2-.9zm-3.8 34.6c-1 2.5-3 4.4-5.5 5.5-2.6 1.1-5.5 1.1-8.1 0-2.5-1-4.4-3.1-5.4-5.5-1.1-2.5-1.1-5.4 0-8 1-2.5 3-4.4 5.4-5.5 2.6-1.1 5.5-1.1 8.1 0 2.5 1.1 4.4 3.1 5.5 5.5 1.1 2.6 1.1 5.5 0 8zM205.1 42.3c-6.4-6.4-16.9-6.4-23.3 0-3.1 3.1-4.8 7.3-4.8 11.6-.2 9.1 7.1 16.6 16.2 16.8 9.1.2 16.6-7.1 16.8-16.2v-.6c0-2.2-.4-4.3-1.2-6.3s-2.1-3.8-3.7-5.3zM203 57.9c-.5 1.2-1.3 2.3-2.2 3.3-.9.9-2.1 1.7-3.3 2.2-2.6 1.1-5.5 1.1-8.1 0-2.5-1-4.4-3.1-5.5-5.5-1.1-2.5-1.1-5.4 0-8 1-2.5 3-4.4 5.5-5.5 2.6-1.1 5.5-1.1 8.1 0 1.2.5 2.3 1.3 3.3 2.2.9.9 1.7 2.1 2.2 3.3 1.1 2.6 1.1 5.5 0 8zM222.2 46.6c.9-.9 2.1-1.7 3.3-2.2 1.3-.5 2.6-.8 4-.8 1.2 0 2.4.2 3.6.6 1.1.5 2.2 1.1 3.2 1.9.6.5 1.3.7 2 .7.8.1 1.7-.3 2.2-.9.6-.6.9-1.4.9-2.2 0-.9-.4-1.8-1.1-2.3-2.9-2.6-6.8-4.1-10.8-4-9.1 0-16.5 7.4-16.5 16.5s7.3 16.4 16.4 16.5c4 0 7.8-1.4 10.8-4 .6-.6 1-1.4 1-2.3.1-1.7-1.2-3-2.8-3.1h-.2c-.7 0-1.4.2-2 .6-.9.8-2 1.4-3.1 1.9-1.1.4-2.4.6-3.6.6-1.4 0-2.7-.3-4-.8-1.2-.5-2.3-1.3-3.3-2.2-4-4-4-10.5 0-14.5zM323.8 65.9c-1.2 0-2.1 1-2.1 2.2s1 2.1 2.2 2.1 2.1-1 2.1-2.1c0-1.2-1-2.2-2.2-2.2zm1.6 2.2c.1.9-.7 1.7-1.6 1.7h-.1c-.9.1-1.7-.7-1.8-1.6-.1-.9.7-1.7 1.6-1.8.9-.1 1.7.7 1.8 1.6v.1zM334.3 39.5c-.6-.6-1.3-1-2.1-1.2-.9-.3-1.8-.5-2.7-.6-.9-.1-1.9-.2-2.8-.2-1.9 0-3.8.3-5.5 1-1.8.6-3.4 1.6-4.8 2.7v-.6c-.1-1.7-1.5-3-3.2-2.9-1.6.1-2.9 1.3-2.9 2.9v26.8c.1 1.7 1.5 3 3.2 2.9 1.6-.1 2.9-1.3 2.9-2.9V54c0-1.4.3-2.7.8-4 .5-1.2 1.2-2.3 2.2-3.3.9-.9 2.1-1.7 3.3-2.2 1.3-.5 2.6-.8 4-.8s2.7.3 4 .7c.4.2.8.3 1.3.3.4 0 .8-.1 1.2-.3.4-.2.7-.4 1-.7.3-.3.5-.6.7-1 .2-.4.3-.8.3-1.2 0-.7-.3-1.4-.9-2zM273.2 40.5c0-.4-.1-.8-.3-1.2s-.4-.7-.7-1c-.3-.3-.6-.5-1-.7-.4-.2-.8-.3-1.2-.3-.6 0-1.1.2-1.7.5l-17.6 11.4V26.4c0-.8-.3-1.6-.9-2.2s-1.3-.9-2.2-.9c-1.7 0-3.1 1.3-3.1 3.1v40.9c0 .8.3 1.6.9 2.2.6.6 1.3.9 2.2.9s1.6-.3 2.2-.9c.6-.6.9-1.3.9-2.2V56.7l3.6-2.3L268 69.6c.6.5 1.3.8 2.1.8.4 0 .8-.1 1.2-.3.4-.2.7-.4 1-.7.3-.3.5-.6.7-1 .2-.4.3-.8.3-1.2 0-.8-.3-1.6-.8-2.1l-12.6-14.2 12.3-8c.7-.5 1.1-1.4 1-2.4zM290.5 37.5c-9.1 0-16.4 7.3-16.5 16.4 0 9.1 7.4 16.5 16.5 16.5 3.9 0 7.8-1.4 10.8-4l.1-.1c.3-.2.5-.5.7-.8 1-1.4.6-3.4-.8-4.3-1.2-.8-2.7-.6-3.8.4l-.4.4-.1.1c-.9.7-1.9 1.3-2.9 1.7-1.1.4-2.3.6-3.6.6-1.1 0-2.2-.2-3.3-.5-1-.4-2-.8-2.9-1.5-.9-.6-1.7-1.4-2.3-2.3-.7-.9-1.1-1.9-1.4-2.9h23.3c.8 0 1.6-.3 2.2-.9.6-.6.9-1.3.9-2.2.1-2.2-.4-4.4-1.1-6.4-2.8-6.2-8.8-10.2-15.4-10.2zm-9.9 13.4c.3-1.1.8-2.1 1.4-2.9.6-.9 1.4-1.7 2.3-2.3s1.9-1.1 2.9-1.5c1-.4 2.2-.5 3.3-.5 1.1 0 2.2.2 3.3.5 2.1.7 3.9 2 5.2 3.8.7.9 1.1 1.9 1.5 2.9h-19.9zM126.2 27.9c-1.6 0-3.2.2-4.7.4-1.1-7.9-7.7-11.7-8-11.9l-1.6-.9-1 1.5c-1.3 2-2.3 4.3-2.8 6.6-1.1 4.5-.4 8.7 1.9 12.4-2.7 1.6-7.2 1.9-8.1 2H28.3c-1.9 0-3.5 1.6-3.5 3.5-.1 6.4 1 12.8 3.2 18.9 2.5 6.6 6.3 11.5 11.2 14.5 5.5 3.4 14.4 5.3 24.5 5.3 4.6 0 9.1-.4 13.6-1.2 6.3-1.1 12.3-3.3 17.8-6.5 4.6-2.6 8.6-6 12.1-9.9 5.8-6.6 9.3-13.9 11.8-20.4h1c6.4 0 10.3-2.5 12.5-4.7 1.4-1.3 2.5-3 3.3-4.9l.5-1.3-1.1-.8c-.2-.5-3-2.6-9-2.6z"/>
	<path d="M324.3 68.1c.3-.1.4-.3.4-.5s-.1-.4-.2-.5c-.2-.1-.5-.2-.7-.2-.3 0-.6 0-.8.1v2.1h.5v-.8h.2c.3 0 .4.1.5.3.1.2.1.4.2.5h.5c-.1-.2-.2-.4-.2-.5 0-.2-.2-.4-.4-.5zm-.6-.1h-.3v-.6h.3c.3 0 .5.2.5.3 0 .1-.2.3-.5.3zM76.1 23.2h9.8c.5 0 .9-.4.9-.9v-8.8c0-.5-.4-.9-.9-.9h-9.8c-.5 0-.9.4-.9.9v8.8c0 .5.4.9.9.9zM62.5 23.2h9.8c.5 0 .9-.4.9-.9v-8.8c0-.5-.4-.9-.9-.9h-9.8c-.5 0-.9.4-.9.9v8.8c0 .5.4.9.9.9zM76.1 35.7h9.8c.5 0 .9-.4.9-.9V26c0-.5-.4-.9-.9-.9h-9.8c-.5 0-.9.4-.9.9v8.8c0 .6.4.9.9.9zM89.8 35.7h9.8c.5 0 .9-.4.9-.9V26c0-.5-.4-.9-.9-.9h-9.8c-.5 0-.9.4-.9.9v8.8c.1.6.4.9.9.9zM76.1 10.5h9.8c.5 0 .9-.4.9-.9V.9c0-.5-.4-.9-.9-.9h-9.8c-.5 0-.9.4-.9.9v8.8c0 .4.4.8.9.8zM35.2 35.7H45c.5 0 .9-.4.9-.9V26c0-.5-.4-.9-.9-.9h-9.8c-.5 0-.9.4-.9.9v8.8c0 .6.4.9.9.9zM48.7 35.7h9.8c.5 0 .9-.4.9-.9V26c0-.5-.4-.9-.9-.9h-9.8c-.5 0-.9.4-.9.9v8.8c.1.6.4.9.9.9zM48.7 23.2h9.8c.5 0 .9-.4.9-.9v-8.8c0-.5-.4-.9-.9-.9h-9.8c-.5 0-.9.4-.9.9v8.8c.1.5.4.9.9.9zM62.5 35.7h9.8c.5 0 .9-.4.9-.9V26c0-.5-.4-.9-.9-.9h-9.8c-.5 0-.9.4-.9.9v8.8c0 .6.4.9.9.9z"/>
</svg>
