<svg xmlns="http://www.w3.org/2000/svg" xml:space="preserve" viewBox="0 0 360 80">
	    <defs>
        <style>
          svg {
            fill: #9ca3af;
          }
          @media (prefers-color-scheme:dark) {
            svg {
              fill: #94a3b8;
            }
          }
        </style>
    </defs>
  <path d="M199 27.3c-4.3 0-7.4 2.1-7.4 7 0 3.8 2.1 6.3 7.1 6.3 4.3 0 7.1-2.5 7.1-6.4.2-4.5-2.5-6.9-6.8-6.9zm-8.4 35c-1 1.3-2 2.5-2 4 0 3.1 3.9 4 9.2 4 4.5 0 10.5-.3 10.5-4.5 0-2.4-2.9-2.6-6.6-2.9 0 .1-11.1-.6-11.1-.6zm22.6-34.8c1.4 1.7 2.9 4.3 2.9 7.7 0 8.5-6.7 13.5-16.2 13.5-2.4 0-4.7-.3-6-.7l-2.5 4 7.5.5c13.2.8 21 1.3 21 11.4 0 8.7-7.7 13.8-21 13.8-13.8 0-19.1-3.6-19.1-9.5 0-3.4 1.5-5.3 4.3-7.8-2.5-1-3.3-3-3.3-5.1 0-1.7.8-3.2 2.2-4.7 1.4-1.5 2.9-2.9 4.7-4.6-3.8-1.8-6.6-5.7-6.6-11.5 0-8.7 5.7-14.8 17.5-14.8 3.3 0 5.3.3 7 .8h14.9v6.4l-7.3.6m20.5-13.9c-4.4 0-6.9-2.5-6.9-6.9s2.5-6.7 6.9-6.7c4.5 0 6.9 2.4 6.9 6.7 0 4.3-2.5 6.9-6.9 6.9zm-9.9 45.8v-6l3.9-.6c1-.1 1.3-.3 1.3-1.5V29c0-.8-.2-1.4-1-1.6l-4.1-1.5.8-6.2h15.8v31.7c0 1.3.1 1.4 1.3 1.5l3.9.6v6l-21.9-.1m52-2.8c-3.3 1.6-8 3.1-12.4 3.1-9.1 0-12.5-3.7-12.5-12.3V27.3c0-.5 0-.8-.6-.8H245v-6.8c6.7-.8 9.4-4.1 10.2-12.4h7.2v10.8c0 .6 0 .8.6.8h10.8v7.6h-11.4v18.3c0 4.5 1 6.2 5.2 6.2 2.2 0 4.4-.6 6.2-1.3l2 6.9M162.6 36.4l-35-34.8c-2-2-5.3-2-7.2 0l-7.2 7.2 9.2 9.2c2.2-.7 4.6-.2 6.3 1.5 1.7 1.7 2.2 4.1 1.5 6.3l8.9 8.9c2.2-.7 4.6-.2 6.3 1.5 2.4 2.4 2.4 6.3 0 8.6-2.4 2.4-6.3 2.4-8.6 0-1.8-1.8-2.3-4.5-1.4-6.7l-8.3-8.3v21.7c.6.3 1.1.7 1.6 1.1 2.4 2.4 2.4 6.3 0 8.6-2.4 2.4-6.3 2.4-8.6 0-2.4-2.4-2.4-6.3 0-8.6.6-.6 1.3-1 2-1.4v-22c-.7-.3-1.4-.7-2-1.4-1.8-1.8-2.3-4.5-1.3-6.7l-9.1-9.1-24 24c-2 2.1-2 5.3 0 7.2l35 35c2 2 5.3 2 7.2 0l34.7-34.7c2.1-1.8 2.1-5 0-7.1"/>
</svg>
