<svg xmlns="http://www.w3.org/2000/svg" xml:space="preserve" viewBox="0 0 360 80">
    <defs>
        <style>
          svg {
            fill: #9ca3af;
          }
          @media (prefers-color-scheme:dark) {
            svg {
              fill: #94a3b8;
            }
          }
        </style>
    </defs>
  <path d="M0 77.6h75.2V2.4H0v75.2zm35.3-9.4H7.1v-4.7h28.2v4.7zM21.8 25.1c.5.6 1.1 1.1 1.6 1.4.5.4 1.2.5 1.8.5.8 0 1.4-.3 1.9-.7.4-.5.7-1.3.7-2.4V11.8H32v12.3c0 1.2-.2 2.1-.4 2.9-.3.8-.7 1.5-1.3 2.1-.5.5-1.2 1-2.1 1.3-.7.3-1.7.4-2.7.4-1.5 0-2.7-.3-3.7-.8s-1.8-1.2-2.5-1.9l2.5-3zM7 27.1h2.7V15.2H7v-3.5h9.5v3.5h-2.6v11.9h2.6v3.5H7v-3.5zM90 21.7h8.2v37.4H90zM117 30c-4.1 0-6.5 2.2-8.4 4.6v-4h-8.1v28.6h8.1v-16c0-3.8 2-5.8 5.1-5.8 3.1 0 4.9 2 4.9 5.8v16h8.1V40.6c0-6.6-3.6-10.6-9.7-10.6zM139.2 49.6V37.4h6.7v-7h-6.7v-7.3H131v7.3h-3.4v7h3.4V51c0 6.6 3.4 8.6 8.4 8.6 2.7 0 4.7-.7 6.4-1.7v-6.6c-1.2.6-2.5 1-4 1-1.8.1-2.6-.8-2.6-2.7z" class="st0"/>
    <path d="M159.9 30c-8.4 0-14.2 6.7-14.2 14.9v.1c0 8.8 6.4 14.8 15 14.9 5.2 0 9-2.1 11.7-5.4l-4.7-4.1c-2.2 2.1-4.2 2.9-7 2.9-3.6 0-6.2-1.9-7-5.6h19.9c0-.7.1-1.5.1-2.2.1-8.1-4.3-15.5-13.8-15.5zm-6.2 12.6c.7-3.7 2.8-6.1 6.2-6.1 3.4 0 5.5 2.5 6 6.1h-12.2zM175.3 20.1h8.1v39h-8.1zM185.2 20.1h8.1v39h-8.1zM195.6 30.5h8.1v28.6h-8.1zM195.4 20.1h8.5v7.2h-8.5zM221.3 45.8c0 4.3-1.9 6.2-5 6.2-2.6 0-4.7-1.4-6.9-3.7l-5.1 5.8c2.6 3 6.4 5.6 12.2 5.5 4 0 7.4-1.2 9.7-3.5 2.2-2.2 3.5-5.5 3.5-10V21.7h-8.4v24.1zM243.2 21.7h8.2v37.4h-8.2zM269 21.7h-14.6v37.4H269c11.7 0 19.9-8.2 19.9-18.7v-.1c0-10.5-8.2-18.6-19.9-18.6zm11.2 18.8c0 6.6-4.5 11.2-11.3 11.2h-6.4V29.2h6.4c6.8 0 11.3 4.6 11.3 11.3zM298.9 43.9h17.6v-7.3h-17.6V29h20v-7.3h-28.2v37.4h28.5v-7.3h-20.3zM343.9 21.4h-7.6l-16.1 37.7h8.4l3.4-8.4h15.8l3.4 8.4h8.6l-15.9-37.7zm-8.8 22.1 5-12.1 5 12.1h-10z" class="st0"/>
</svg>
