<svg xmlns="http://www.w3.org/2000/svg" xml:space="preserve" viewBox="0 0 360 80">
	<defs>
        <style>
          svg {
            fill: #9ca3af;
          }
          @media (prefers-color-scheme:dark) {
            svg {
              fill: #94a3b8;
            }
          }
        </style>
    </defs>
  <path d="M97.9.5C86 .4 74.1.5 62.2.5H26.5c-7.8 0-10.4 2.1-12.2 9.8C9.7 30.3 5.1 50.4.6 70.4c-1.7 7.4.4 10 8.2 10 23.8.1 47.7.1 71.5 0 6.8 0 10.2-2.7 11.6-9.1 4.6-20.4 9.2-40.9 13.7-61.4 1.4-7-.6-9.3-7.7-9.4zM22.5 68.7c-2.4-3.2-.2-5.1 2.3-6.9 8.8-6.4 17.6-12.9 26.4-19.3 1.2-.9 3-1.4 3.2-3.7-.8-.9-1.7-2-2.6-3-5.3-5.9-10.6-11.8-15.9-17.6-2.5-2.6-3.2-5.2-.3-7.8 2.9-2.6 5.8-2.3 8.4.6 7.4 8.2 14.9 16.5 22.4 24.6 2.8 3 2.2 5.1-.9 7.3C53.6 51.5 41.7 60.3 29.8 69c-2.6 2.1-5.1 2.6-7.3-.3zm46.4 1c-3.6.2-7.2.1-10.8.1-3.2 0-6.4.1-9.6 0-2.6-.1-4.1-1.5-4.1-4.2 0-2.5 1.3-4.5 3.9-4.5 7-.2 14-.1 21 0 2.2 0 3.9 1.5 3.9 3.8 0 2.6-1.4 4.6-4.3 4.8zM142.6 25.4c-2.2-1.9-5.3-2.8-9.4-2.8h-10.4V59h4.4V45.2h5c4.2 0 7.5-1.1 10-3.3 2.5-2.2 3.7-5 3.7-8.5s-1.1-6.1-3.3-8zm-3.7 13.9c-1.6 1.3-3.9 2-7 2h-4.6V26.4h5.2c5.9 0 8.8 2.4 8.8 7.2 0 2.5-.8 4.4-2.4 5.7zM161 32.3c-4.2 0-7.6 1.2-10 3.7-2.5 2.5-3.7 5.9-3.7 10.2 0 4 1.2 7.2 3.6 9.7s5.6 3.6 9.5 3.6c4.1 0 7.3-1.2 9.8-3.7 2.4-2.5 3.6-5.8 3.6-10s-1.1-7.5-3.4-9.9-5.4-3.6-9.4-3.6zm6.1 21.1c-1.5 1.7-3.6 2.6-6.4 2.6-2.7 0-4.9-.9-6.6-2.7-1.6-1.8-2.4-4.2-2.4-7.3 0-3.2.8-5.7 2.4-7.5 1.6-1.8 3.8-2.7 6.6-2.7s4.9.9 6.4 2.6c1.5 1.8 2.2 4.3 2.2 7.5 0 3.3-.7 5.8-2.2 7.5zM203.5 52.5c-.3.9-.4 1.7-.4 2.3h-.2c-.1-.9-.2-1.7-.4-2.3l-5.6-19.6H193l-6.2 19.5c-.3.8-.4 1.6-.5 2.4h-.3c-.1-1-.2-1.7-.4-2.3L180 32.9h-4.5l8.2 26h4.3l6-18.7c.3-1 .5-1.8.6-2.4h.1c.1.9.2 1.7.4 2.4l5.6 18.6h4.5l8.1-26H209l-5.5 19.7zM227.4 32.3c-3.5 0-6.5 1.3-8.9 3.8-2.4 2.5-3.6 5.8-3.6 9.9 0 4.3 1.1 7.6 3.3 10 2.2 2.4 5.2 3.5 9 3.5 3.9 0 7-.8 9.4-2.5v-3.9c-2.5 1.9-5.3 2.9-8.4 2.9-2.7 0-4.8-.8-6.4-2.4-1.5-1.6-2.4-3.8-2.4-6.7h19v-2.2c0-3.9-1-7-2.9-9.2-1.9-2.1-4.6-3.2-8.1-3.2zm-7.9 11.2c.3-2.3 1.2-4.1 2.6-5.5 1.4-1.4 3.1-2.1 5.2-2.1s3.8.7 4.9 2c1.2 1.3 1.8 3.2 1.8 5.6h-14.5zM250.8 34c-1.3 1-2.2 2.5-2.8 4.3h-.1v-5.4h-4.3v26h4.3V45.7c0-2.9.6-5.2 1.9-6.9s2.8-2.5 4.6-2.5c1.4 0 2.5.3 3.3.8v-4.3c-.6-.2-1.5-.4-2.6-.4-1.6.1-3 .6-4.3 1.6zM279.6 43.3c-.9-.9-2-1.7-3.2-2.4-1.2-.7-2.5-1.4-3.8-2-1.3-.6-2.5-1.2-3.5-1.7s-1.9-1.1-2.6-1.6-1.2-1.2-1.6-1.9c-.4-.7-.5-1.5-.5-2.4 0-1 .2-1.8.7-2.5.5-.7 1.1-1.3 1.8-1.7.8-.4 1.6-.8 2.6-1 1-.2 1.9-.3 2.9-.3 3.5 0 6.4.7 8.6 2.2v-4.8c-1.7-.9-4.4-1.3-8.1-1.3-1.6 0-3.2.2-4.8.6-1.6.4-3 1-4.2 1.8-1.2.8-2.2 1.8-3 3-.8 1.2-1.1 2.7-1.1 4.3 0 1.4.2 2.5.7 3.5.5 1 1.1 1.9 2 2.7.8.8 1.8 1.5 3 2.2s2.4 1.3 3.7 2c1.2.6 2.4 1.2 3.5 1.7 1.1.6 2 1.1 2.8 1.7.8.6 1.4 1.3 1.9 2 .4.7.7 1.6.7 2.6 0 1.8-.7 3.2-2 4.2s-3.4 1.5-6.1 1.5c-.8 0-1.7-.1-2.6-.2s-1.9-.4-2.8-.6c-.9-.3-1.8-.6-2.6-1s-1.5-.9-2.1-1.4v5c.5.3 1.1.6 2 .9s1.7.5 2.6.7 1.8.3 2.7.4 1.6.1 2.2.1c1.8 0 3.5-.2 5.1-.5s3-.9 4.3-1.7c1.2-.8 2.2-1.8 2.9-3s1.1-2.8 1.1-4.6c0-1.4-.3-2.6-.8-3.6-.7-1.1-1.5-2.1-2.4-2.9zM301.4 32.3c-3.8 0-6.8 1.6-8.8 4.9h-.1V20.4h-4.3v38.5h4.3V44.2c0-2.5.7-4.5 2.2-6 1.4-1.6 3.2-2.3 5.3-2.3 4.2 0 6.3 2.7 6.3 8.1v15h4.3V43c-.1-7.1-3.1-10.7-9.2-10.7zM327.8 32.3c-3.5 0-6.5 1.3-8.9 3.8-2.4 2.5-3.6 5.8-3.6 9.9 0 4.3 1.1 7.6 3.3 10s5.2 3.5 9 3.5c3.9 0 7-.8 9.4-2.5v-3.9c-2.5 1.9-5.3 2.9-8.4 2.9-2.7 0-4.8-.8-6.4-2.4s-2.4-3.8-2.4-6.7h19v-2.2c0-3.9-1-7-2.9-9.2-1.8-2.1-4.5-3.2-8.1-3.2zm-7.9 11.2c.3-2.3 1.2-4.1 2.6-5.5 1.4-1.4 3.1-2.1 5.2-2.1s3.8.7 4.9 2c1.2 1.3 1.8 3.2 1.8 5.6h-14.5zM344 20.4h4.3v38.5H344zM355.7 20.4h4.3v38.5h-4.3z"/>
</svg>
