<svg xmlns="http://www.w3.org/2000/svg" xml:space="preserve" viewBox="0 0 360 80">
	    <defs>
        <style>
          svg {
            fill: #9ca3af;
          }
          @media (prefers-color-scheme:dark) {
            svg {
              fill: #94a3b8;
            }
          }
        </style>
    </defs>
  <path d="M56.8 39.6h18.5c5.1 0 9.3-4.2 9.3-9.5V12.6c0-5-4.2-8.8-9.3-9.6-3.2-.6-6.5-.8-9.7-.8s-6.1.3-8.8.8c-7.9 1.4-9.3 4.3-9.3 9.6v7.1H66V22H40.6c-5.4 0-10.1 3.2-11.7 9.4-1.7 7.1-1.8 11.4 0 18.8 1.4 5.5 4.5 9.4 9.8 9.4h6.4v-8.3c.1-6.2 5.5-11.7 11.7-11.7zM55.7 15c-1.9 0-3.4-1.6-3.4-3.5-.1-1.9 1.5-3.5 3.4-3.5s3.4 1.6 3.4 3.5-1.6 3.5-3.4 3.5zm88.2 6-.1-.1c-5.3.1-9.7 1.1-13.4 3.3-1.6.9-2.9 1.9-3.9 3.2V76l6.2 2.2V56.3c3.8 2.3 7.5 3.4 11.1 3.3 4.8-.1 8.5-2.2 11.2-5.9 2.4-3.3 3.5-7.5 3.5-12.7 0-5.7-1.1-10.5-3.5-14-2.7-4-6.3-6.1-11.1-6zm-1.4 34.1c-2.9.1-6.2-.9-9.8-3.2v-24c.7-.6 1.8-1.3 3.5-1.8 2.2-.8 4.5-1.1 6.7-1 5.7.3 8.6 5.5 8.6 15.5 0 9.3-3 14.2-9 14.5zm187.3-30.5c-1.6-1.5-3.5-2.5-5.9-3.1-1.3-.3-2.6-.5-4.1-.5-2.1 0-4.6.3-7.4 1-3 .8-6.3 2.4-9.8 5v31.6h6.2v-31c2.6-1.8 5.4-2.7 8.3-2.9 2.7-.1 4.9.6 6.6 2.2 1.7 1.6 2.5 3.8 2.5 6.5v25.1h6.2V30.6c-.1-2.4-.9-4.3-2.6-6zM190.4 52c-3.3 2.2-6.3 3.2-9.1 3.3-2.9 0-5.1-.7-7-2.2s-2.7-3.7-2.7-6.4V20.9l-6.2 2.1v25.6c0 3.3 1.3 5.9 3.9 8 2.3 1.9 4.9 2.9 8 2.9 4.7 0 9-.9 13.2-2.9v1.6c0 4.8-.5 8-1.4 9.7-1.1 2.1-3.2 3.7-6.2 4.7-1.6.5-4.2 1-7.9 1.5l1 3.9c3.5-.1 7-.8 10.2-2.1 3.9-1.6 6.5-3.7 7.9-6.3s2.1-7.4 2.1-14.3l.3-33.5h-6.2V52zm56.1-30.4c-4.7 0-8.9 1.5-12.9 4.3V0l-6.2 1.9v57h6.2V30.4c4.3-3 7.8-4.5 10.6-4.5 2.4 0 4.1 1 5.5 3 1.1 1.7 1.7 3.8 1.7 6.2v23.6h6.2V33.1c0-3.3-1-5.9-3.1-8.2-2.1-2.3-4.7-3.3-8-3.3zm33.5-.7c-5 0-9.1 1.8-12.3 5.6-3 3.7-4.5 7.9-4.5 13.1 0 5.5 1.4 10.1 4.1 13.7 3.1 4.1 7.3 6.2 12.7 6.2 5.5 0 9.7-2.1 12.8-6.2 2.7-3.7 4.2-8.2 4.2-13.7 0-5.3-1.5-9.5-4.6-13.1-3.1-3.7-7.3-5.6-12.4-5.6zm.2 34.6c-3.5.1-6.3-1.7-8.1-5.4-1.4-2.7-2.1-6.4-2.1-10.6 0-9.3 3.3-14 10.1-14.5 3.7.2 6.4 1.8 8.1 4.9 1.5 2.5 2.2 5.7 2.2 9.6-.1 10.8-3.5 16.1-10.2 16zm-60 .6c-2.3-.1-4-.6-5-1.4-1.3-.9-1.8-2.6-1.8-4.9V25.7h7v-3.9h-7V9.4l-6.2 2.2v10.3H203v3.9h4.2V50c0 2.9 1 5.1 3 6.9 1.9 1.7 4.7 2.5 8.1 2.5.6 0 1.4 0 2.1-.1-.1 0-.1-3.2-.2-3.2z"/>
	<path d="m93.9 22.2-7-.1v8.2c0 6.4-5.5 11.8-11.7 11.8H56.8c-5 0-9.3 4.3-9.3 9.5v17.6c0 5 4.3 8 9.3 9.5 5.8 1.7 11.4 2.1 18.5 0 4.7-1.4 9.3-4.1 9.3-9.5V62H66.1v-2.3h27.8c5.4 0 7.4-3.8 9.3-9.4 1.9-5.8 1.8-11.4 0-18.8-1.5-5.3-4-9.3-9.3-9.3zM76.5 66.7c1.9 0 3.4 1.6 3.4 3.5s-1.6 3.5-3.4 3.5-3.4-1.6-3.4-3.5 1.5-3.5 3.4-3.5z"/>
</svg>
